%TF.GenerationSoftware,KiCad,Pcbnew,(6.0.9)*%
%TF.CreationDate,2023-01-29T18:03:13-08:00*%
%TF.ProjectId,numpad,6e756d70-6164-42e6-9b69-6361645f7063,rev?*%
%TF.SameCoordinates,Original*%
%TF.FileFunction,Copper,L1,Top*%
%TF.FilePolarity,Positive*%
%FSLAX46Y46*%
G04 Gerber Fmt 4.6, Leading zero omitted, Abs format (unit mm)*
G04 Created by KiCad (PCBNEW (6.0.9)) date 2023-01-29 18:03:13*
%MOMM*%
%LPD*%
G01*
G04 APERTURE LIST*
%TA.AperFunction,ComponentPad*%
%ADD10O,1.700000X1.700000*%
%TD*%
%TA.AperFunction,ComponentPad*%
%ADD11R,1.700000X1.700000*%
%TD*%
%TA.AperFunction,ComponentPad*%
%ADD12C,2.200000*%
%TD*%
%TA.AperFunction,Conductor*%
%ADD13C,0.250000*%
%TD*%
G04 APERTURE END LIST*
D10*
%TO.P,U1,40,VBUS*%
%TO.N,unconnected-(U1-Pad40)*%
X81510000Y-53325000D03*
%TO.P,U1,39,VSYS*%
%TO.N,unconnected-(U1-Pad39)*%
X81510000Y-55865000D03*
D11*
%TO.P,U1,38,GND*%
%TO.N,unconnected-(U1-Pad38)*%
X81510000Y-58405000D03*
D10*
%TO.P,U1,37,3V3_EN*%
%TO.N,unconnected-(U1-Pad37)*%
X81510000Y-60945000D03*
%TO.P,U1,36,3V3*%
%TO.N,Net-(SW1-Pad1)*%
X81510000Y-63485000D03*
%TO.P,U1,35,ADC_VREF*%
%TO.N,unconnected-(U1-Pad35)*%
X81510000Y-66025000D03*
%TO.P,U1,34,GPIO28_ADC2*%
%TO.N,unconnected-(U1-Pad34)*%
X81510000Y-68565000D03*
D11*
%TO.P,U1,33,AGND*%
%TO.N,unconnected-(U1-Pad33)*%
X81510000Y-71105000D03*
D10*
%TO.P,U1,32,GPIO27_ADC1*%
%TO.N,unconnected-(U1-Pad32)*%
X81510000Y-73645000D03*
%TO.P,U1,31,GPIO26_ADC0*%
%TO.N,unconnected-(U1-Pad31)*%
X81510000Y-76185000D03*
%TO.P,U1,30,RUN*%
%TO.N,unconnected-(U1-Pad30)*%
X81510000Y-78725000D03*
%TO.P,U1,29,GPIO22*%
%TO.N,unconnected-(U1-Pad29)*%
X81510000Y-81265000D03*
D11*
%TO.P,U1,28,GND*%
%TO.N,unconnected-(U1-Pad28)*%
X81510000Y-83805000D03*
D10*
%TO.P,U1,27,GPIO21*%
%TO.N,unconnected-(U1-Pad27)*%
X81510000Y-86345000D03*
%TO.P,U1,26,GPIO20*%
%TO.N,unconnected-(U1-Pad26)*%
X81510000Y-88885000D03*
%TO.P,U1,25,GPIO19*%
%TO.N,unconnected-(U1-Pad25)*%
X81510000Y-91425000D03*
%TO.P,U1,24,GPIO18*%
%TO.N,unconnected-(U1-Pad24)*%
X81510000Y-93965000D03*
D11*
%TO.P,U1,23,GND*%
%TO.N,unconnected-(U1-Pad23)*%
X81510000Y-96505000D03*
D10*
%TO.P,U1,22,GPIO17*%
%TO.N,unconnected-(U1-Pad22)*%
X81510000Y-99045000D03*
%TO.P,U1,21,GPIO16*%
%TO.N,Net-(SW17-Pad2)*%
X81510000Y-101585000D03*
%TO.P,U1,20,GPIO15*%
%TO.N,Net-(SW16-Pad2)*%
X99290000Y-101585000D03*
%TO.P,U1,19,GPIO14*%
%TO.N,Net-(SW15-Pad2)*%
X99290000Y-99045000D03*
D11*
%TO.P,U1,18,GND*%
%TO.N,unconnected-(U1-Pad18)*%
X99290000Y-96505000D03*
D10*
%TO.P,U1,17,GPIO13*%
%TO.N,Net-(SW14-Pad2)*%
X99290000Y-93965000D03*
%TO.P,U1,16,GPIO12*%
%TO.N,Net-(SW13-Pad2)*%
X99290000Y-91425000D03*
%TO.P,U1,15,GPIO11*%
%TO.N,Net-(SW12-Pad2)*%
X99290000Y-88885000D03*
%TO.P,U1,14,GPIO10*%
%TO.N,Net-(SW11-Pad2)*%
X99290000Y-86345000D03*
D11*
%TO.P,U1,13,GND*%
%TO.N,unconnected-(U1-Pad13)*%
X99290000Y-83805000D03*
D10*
%TO.P,U1,12,GPIO9*%
%TO.N,Net-(SW10-Pad2)*%
X99290000Y-81265000D03*
%TO.P,U1,11,GPIO8*%
%TO.N,Net-(SW9-Pad2)*%
X99290000Y-78725000D03*
%TO.P,U1,10,GPIO7*%
%TO.N,Net-(SW8-Pad2)*%
X99290000Y-76185000D03*
%TO.P,U1,9,GPIO6*%
%TO.N,Net-(SW7-Pad2)*%
X99290000Y-73645000D03*
D11*
%TO.P,U1,8,GND*%
%TO.N,unconnected-(U1-Pad8)*%
X99290000Y-71105000D03*
D10*
%TO.P,U1,7,GPIO5*%
%TO.N,Net-(SW6-Pad2)*%
X99290000Y-68565000D03*
%TO.P,U1,6,GPIO4*%
%TO.N,Net-(SW5-Pad2)*%
X99290000Y-66025000D03*
%TO.P,U1,5,GPIO3*%
%TO.N,Net-(SW4-Pad2)*%
X99290000Y-63485000D03*
%TO.P,U1,4,GPIO2*%
%TO.N,Net-(SW3-Pad2)*%
X99290000Y-60945000D03*
D11*
%TO.P,U1,3,GND*%
%TO.N,unconnected-(U1-Pad3)*%
X99290000Y-58405000D03*
D10*
%TO.P,U1,2,GPIO1*%
%TO.N,Net-(SW2-Pad2)*%
X99290000Y-55865000D03*
%TO.P,U1,1,GPIO0*%
%TO.N,Net-(SW1-Pad2)*%
X99290000Y-53325000D03*
%TD*%
D12*
%TO.P,SW17,2*%
%TO.N,Net-(SW17-Pad2)*%
X123170000Y-88935000D03*
%TO.P,SW17,1*%
%TO.N,Net-(SW1-Pad1)*%
X125710000Y-95285000D03*
%TD*%
%TO.P,SW16,2*%
%TO.N,Net-(SW16-Pad2)*%
X123170000Y-127035000D03*
%TO.P,SW16,1*%
%TO.N,Net-(SW1-Pad1)*%
X125710000Y-133385000D03*
%TD*%
%TO.P,SW15,2*%
%TO.N,Net-(SW15-Pad2)*%
X83165000Y-134020000D03*
%TO.P,SW15,1*%
%TO.N,Net-(SW1-Pad1)*%
X76815000Y-136560000D03*
%TD*%
%TO.P,SW14,2*%
%TO.N,Net-(SW14-Pad2)*%
X130790000Y-57820000D03*
%TO.P,SW14,1*%
%TO.N,Net-(SW1-Pad1)*%
X124440000Y-60360000D03*
%TD*%
%TO.P,SW13,2*%
%TO.N,Net-(SW13-Pad2)*%
X111740000Y-134020000D03*
%TO.P,SW13,1*%
%TO.N,Net-(SW1-Pad1)*%
X105390000Y-136560000D03*
%TD*%
%TO.P,SW12,2*%
%TO.N,Net-(SW12-Pad2)*%
X111740000Y-57820000D03*
%TO.P,SW12,1*%
%TO.N,Net-(SW1-Pad1)*%
X105390000Y-60360000D03*
%TD*%
%TO.P,SW11,2*%
%TO.N,Net-(SW11-Pad2)*%
X92690000Y-57820000D03*
%TO.P,SW11,1*%
%TO.N,Net-(SW1-Pad1)*%
X86340000Y-60360000D03*
%TD*%
%TO.P,SW10,2*%
%TO.N,Net-(SW10-Pad2)*%
X73640000Y-57820000D03*
%TO.P,SW10,1*%
%TO.N,Net-(SW1-Pad1)*%
X67290000Y-60360000D03*
%TD*%
%TO.P,SW9,2*%
%TO.N,Net-(SW9-Pad2)*%
X111740000Y-76870000D03*
%TO.P,SW9,1*%
%TO.N,Net-(SW1-Pad1)*%
X105390000Y-79410000D03*
%TD*%
%TO.P,SW8,2*%
%TO.N,Net-(SW8-Pad2)*%
X92690000Y-76870000D03*
%TO.P,SW8,1*%
%TO.N,Net-(SW1-Pad1)*%
X86340000Y-79410000D03*
%TD*%
%TO.P,SW7,2*%
%TO.N,Net-(SW7-Pad2)*%
X73640000Y-76870000D03*
%TO.P,SW7,1*%
%TO.N,Net-(SW1-Pad1)*%
X67290000Y-79410000D03*
%TD*%
%TO.P,SW6,1*%
%TO.N,Net-(SW1-Pad1)*%
X105390000Y-98460000D03*
%TO.P,SW6,2*%
%TO.N,Net-(SW6-Pad2)*%
X111740000Y-95920000D03*
%TD*%
%TO.P,SW5,2*%
%TO.N,Net-(SW5-Pad2)*%
X92690000Y-95920000D03*
%TO.P,SW5,1*%
%TO.N,Net-(SW1-Pad1)*%
X86340000Y-98460000D03*
%TD*%
%TO.P,SW4,2*%
%TO.N,Net-(SW4-Pad2)*%
X73640000Y-95920000D03*
%TO.P,SW4,1*%
%TO.N,Net-(SW1-Pad1)*%
X67290000Y-98460000D03*
%TD*%
%TO.P,SW3,2*%
%TO.N,Net-(SW3-Pad2)*%
X111740000Y-114970000D03*
%TO.P,SW3,1*%
%TO.N,Net-(SW1-Pad1)*%
X105390000Y-117510000D03*
%TD*%
%TO.P,SW2,2*%
%TO.N,Net-(SW2-Pad2)*%
X92690000Y-114970000D03*
%TO.P,SW2,1*%
%TO.N,Net-(SW1-Pad1)*%
X86340000Y-117510000D03*
%TD*%
%TO.P,SW1,2*%
%TO.N,Net-(SW1-Pad2)*%
X73640000Y-114970000D03*
%TO.P,SW1,1*%
%TO.N,Net-(SW1-Pad1)*%
X67290000Y-117510000D03*
%TD*%
D13*
%TO.N,Net-(SW15-Pad2)*%
X91265000Y-115576241D02*
X91265000Y-107070000D01*
X91265000Y-107070000D02*
X99290000Y-99045000D01*
X83165000Y-123676241D02*
X91265000Y-115576241D01*
X83165000Y-134020000D02*
X83165000Y-123676241D01*
%TO.N,Net-(SW3-Pad2)*%
X99335000Y-60900000D02*
X99290000Y-60945000D01*
X104799745Y-118935000D02*
X103100000Y-117235255D01*
X103100000Y-117235255D02*
X103100000Y-60900000D01*
X105980255Y-118935000D02*
X104799745Y-118935000D01*
X109945255Y-114970000D02*
X105980255Y-118935000D01*
X103100000Y-60900000D02*
X99335000Y-60900000D01*
X111740000Y-114970000D02*
X109945255Y-114970000D01*
%TO.N,Net-(SW1-Pad1)*%
X84635000Y-60360000D02*
X81510000Y-63485000D01*
X86340000Y-60360000D02*
X84635000Y-60360000D01*
X105390000Y-98460000D02*
X105390000Y-117510000D01*
X105390000Y-79410000D02*
X105390000Y-98460000D01*
X105390000Y-60360000D02*
X105390000Y-79410000D01*
X67290000Y-117510000D02*
X86340000Y-117510000D01*
X86340000Y-98460000D02*
X86340000Y-117510000D01*
X86340000Y-79410000D02*
X86340000Y-98460000D01*
X86340000Y-60360000D02*
X86340000Y-79410000D01*
X107500000Y-58250000D02*
X105390000Y-60360000D01*
X110100000Y-55000000D02*
X107500000Y-57600000D01*
X137000000Y-55000000D02*
X110100000Y-55000000D01*
X131640000Y-60360000D02*
X137000000Y-55000000D01*
X107500000Y-57600000D02*
X107500000Y-58250000D01*
X124440000Y-60360000D02*
X131640000Y-60360000D01*
X125710000Y-61630000D02*
X124440000Y-60360000D01*
X125710000Y-95285000D02*
X125710000Y-61630000D01*
X125710000Y-133385000D02*
X125710000Y-95285000D01*
X122535000Y-136560000D02*
X125710000Y-133385000D01*
X105390000Y-136560000D02*
X122535000Y-136560000D01*
X76815000Y-136560000D02*
X105390000Y-136560000D01*
X69960000Y-136560000D02*
X76815000Y-136560000D01*
X67290000Y-133890000D02*
X69960000Y-136560000D01*
X67290000Y-117510000D02*
X67290000Y-133890000D01*
X67290000Y-98460000D02*
X67290000Y-117510000D01*
X67290000Y-79410000D02*
X67290000Y-98460000D01*
X67290000Y-60360000D02*
X67290000Y-79410000D01*
%TD*%
M02*
