%TF.GenerationSoftware,KiCad,Pcbnew,(6.0.9)*%
%TF.CreationDate,2023-01-29T18:03:13-08:00*%
%TF.ProjectId,numpad,6e756d70-6164-42e6-9b69-6361645f7063,rev?*%
%TF.SameCoordinates,Original*%
%TF.FileFunction,Legend,Bot*%
%TF.FilePolarity,Positive*%
%FSLAX46Y46*%
G04 Gerber Fmt 4.6, Leading zero omitted, Abs format (unit mm)*
G04 Created by KiCad (PCBNEW (6.0.9)) date 2023-01-29 18:03:13*
%MOMM*%
%LPD*%
G01*
G04 APERTURE LIST*
%ADD10C,0.150000*%
%ADD11C,0.120000*%
G04 APERTURE END LIST*
D10*
X96400000Y-68252380D02*
X96733333Y-67776190D01*
X96971428Y-68252380D02*
X96971428Y-67252380D01*
X96590476Y-67252380D01*
X96495238Y-67300000D01*
X96447619Y-67347619D01*
X96400000Y-67442857D01*
X96400000Y-67585714D01*
X96447619Y-67680952D01*
X96495238Y-67728571D01*
X96590476Y-67776190D01*
X96971428Y-67776190D01*
X95542857Y-68252380D02*
X95542857Y-67728571D01*
X95590476Y-67633333D01*
X95685714Y-67585714D01*
X95876190Y-67585714D01*
X95971428Y-67633333D01*
X95542857Y-68204761D02*
X95638095Y-68252380D01*
X95876190Y-68252380D01*
X95971428Y-68204761D01*
X96019047Y-68109523D01*
X96019047Y-68014285D01*
X95971428Y-67919047D01*
X95876190Y-67871428D01*
X95638095Y-67871428D01*
X95542857Y-67823809D01*
X95114285Y-68204761D02*
X95019047Y-68252380D01*
X94828571Y-68252380D01*
X94733333Y-68204761D01*
X94685714Y-68109523D01*
X94685714Y-68061904D01*
X94733333Y-67966666D01*
X94828571Y-67919047D01*
X94971428Y-67919047D01*
X95066666Y-67871428D01*
X95114285Y-67776190D01*
X95114285Y-67728571D01*
X95066666Y-67633333D01*
X94971428Y-67585714D01*
X94828571Y-67585714D01*
X94733333Y-67633333D01*
X94257142Y-67585714D02*
X94257142Y-68585714D01*
X94257142Y-67633333D02*
X94161904Y-67585714D01*
X93971428Y-67585714D01*
X93876190Y-67633333D01*
X93828571Y-67680952D01*
X93780952Y-67776190D01*
X93780952Y-68061904D01*
X93828571Y-68157142D01*
X93876190Y-68204761D01*
X93971428Y-68252380D01*
X94161904Y-68252380D01*
X94257142Y-68204761D01*
X93352380Y-68252380D02*
X93352380Y-67252380D01*
X93352380Y-67633333D02*
X93257142Y-67585714D01*
X93066666Y-67585714D01*
X92971428Y-67633333D01*
X92923809Y-67680952D01*
X92876190Y-67776190D01*
X92876190Y-68061904D01*
X92923809Y-68157142D01*
X92971428Y-68204761D01*
X93066666Y-68252380D01*
X93257142Y-68252380D01*
X93352380Y-68204761D01*
X92066666Y-68204761D02*
X92161904Y-68252380D01*
X92352380Y-68252380D01*
X92447619Y-68204761D01*
X92495238Y-68109523D01*
X92495238Y-67728571D01*
X92447619Y-67633333D01*
X92352380Y-67585714D01*
X92161904Y-67585714D01*
X92066666Y-67633333D01*
X92019047Y-67728571D01*
X92019047Y-67823809D01*
X92495238Y-67919047D01*
X91590476Y-68252380D02*
X91590476Y-67585714D01*
X91590476Y-67776190D02*
X91542857Y-67680952D01*
X91495238Y-67633333D01*
X91400000Y-67585714D01*
X91304761Y-67585714D01*
X90971428Y-68252380D02*
X90971428Y-67585714D01*
X90971428Y-67776190D02*
X90923809Y-67680952D01*
X90876190Y-67633333D01*
X90780952Y-67585714D01*
X90685714Y-67585714D01*
X90447619Y-67585714D02*
X90209523Y-68252380D01*
X89971428Y-67585714D02*
X90209523Y-68252380D01*
X90304761Y-68490476D01*
X90352380Y-68538095D01*
X90447619Y-68585714D01*
X88828571Y-68252380D02*
X88828571Y-67252380D01*
X88447619Y-67252380D01*
X88352380Y-67300000D01*
X88304761Y-67347619D01*
X88257142Y-67442857D01*
X88257142Y-67585714D01*
X88304761Y-67680952D01*
X88352380Y-67728571D01*
X88447619Y-67776190D01*
X88828571Y-67776190D01*
X87828571Y-68252380D02*
X87828571Y-67585714D01*
X87828571Y-67252380D02*
X87876190Y-67300000D01*
X87828571Y-67347619D01*
X87780952Y-67300000D01*
X87828571Y-67252380D01*
X87828571Y-67347619D01*
X86590476Y-68252380D02*
X86590476Y-67252380D01*
X86209523Y-67252380D01*
X86114285Y-67300000D01*
X86066666Y-67347619D01*
X86019047Y-67442857D01*
X86019047Y-67585714D01*
X86066666Y-67680952D01*
X86114285Y-67728571D01*
X86209523Y-67776190D01*
X86590476Y-67776190D01*
X85590476Y-68252380D02*
X85590476Y-67585714D01*
X85590476Y-67252380D02*
X85638095Y-67300000D01*
X85590476Y-67347619D01*
X85542857Y-67300000D01*
X85590476Y-67252380D01*
X85590476Y-67347619D01*
X84685714Y-68204761D02*
X84780952Y-68252380D01*
X84971428Y-68252380D01*
X85066666Y-68204761D01*
X85114285Y-68157142D01*
X85161904Y-68061904D01*
X85161904Y-67776190D01*
X85114285Y-67680952D01*
X85066666Y-67633333D01*
X84971428Y-67585714D01*
X84780952Y-67585714D01*
X84685714Y-67633333D01*
X84114285Y-68252380D02*
X84209523Y-68204761D01*
X84257142Y-68157142D01*
X84304761Y-68061904D01*
X84304761Y-67776190D01*
X84257142Y-67680952D01*
X84209523Y-67633333D01*
X84114285Y-67585714D01*
X83971428Y-67585714D01*
X83876190Y-67633333D01*
X83828571Y-67680952D01*
X83780952Y-67776190D01*
X83780952Y-68061904D01*
X83828571Y-68157142D01*
X83876190Y-68204761D01*
X83971428Y-68252380D01*
X84114285Y-68252380D01*
%TO.C,U1*%
X91161904Y-76907380D02*
X91161904Y-77716904D01*
X91114285Y-77812142D01*
X91066666Y-77859761D01*
X90971428Y-77907380D01*
X90780952Y-77907380D01*
X90685714Y-77859761D01*
X90638095Y-77812142D01*
X90590476Y-77716904D01*
X90590476Y-76907380D01*
X89590476Y-77907380D02*
X90161904Y-77907380D01*
X89876190Y-77907380D02*
X89876190Y-76907380D01*
X89971428Y-77050238D01*
X90066666Y-77145476D01*
X90161904Y-77193095D01*
X76389722Y-73264407D02*
X76308910Y-73237470D01*
X76228097Y-73156658D01*
X76174223Y-73048908D01*
X76174223Y-72941158D01*
X76201160Y-72860346D01*
X76281972Y-72725659D01*
X76362784Y-72644847D01*
X76497471Y-72564035D01*
X76578284Y-72537097D01*
X76686033Y-72537097D01*
X76793783Y-72590972D01*
X76847658Y-72644847D01*
X76901532Y-72752597D01*
X76901532Y-72806471D01*
X76712971Y-72995033D01*
X76605221Y-72887284D01*
X77197844Y-72995033D02*
X76632158Y-73560719D01*
X76847658Y-73776218D01*
X76928470Y-73803155D01*
X76982345Y-73803155D01*
X77063157Y-73776218D01*
X77143969Y-73695406D01*
X77170906Y-73614593D01*
X77170906Y-73560719D01*
X77143969Y-73479906D01*
X76928470Y-73264407D01*
X77224781Y-74045592D02*
X77224781Y-74099467D01*
X77251719Y-74180279D01*
X77386406Y-74314966D01*
X77467218Y-74341903D01*
X77521093Y-74341903D01*
X77601905Y-74314966D01*
X77655780Y-74261091D01*
X77709654Y-74153341D01*
X77709654Y-73506844D01*
X78059841Y-73857030D01*
X77682717Y-74611277D02*
X78059841Y-74988401D01*
X78383089Y-74180279D01*
X77238375Y-78051564D02*
X76780439Y-78132377D01*
X76915126Y-77728316D02*
X76349441Y-78294001D01*
X76564940Y-78509500D01*
X76645752Y-78536438D01*
X76699627Y-78536438D01*
X76780439Y-78509500D01*
X76861251Y-78428688D01*
X76888189Y-78347876D01*
X76888189Y-78294001D01*
X76861251Y-78213189D01*
X76645752Y-77997690D01*
X76915126Y-78859687D02*
X77373062Y-78401751D01*
X77453874Y-78374813D01*
X77507749Y-78374813D01*
X77588561Y-78401751D01*
X77696311Y-78509500D01*
X77723248Y-78590312D01*
X77723248Y-78644187D01*
X77696311Y-78725000D01*
X77238375Y-79182935D01*
X78073435Y-78886624D02*
X77507749Y-79452309D01*
X78396683Y-79209873D01*
X77830998Y-79775558D01*
X102497722Y-85954407D02*
X102416910Y-85927470D01*
X102336097Y-85846658D01*
X102282223Y-85738908D01*
X102282223Y-85631158D01*
X102309160Y-85550346D01*
X102389972Y-85415659D01*
X102470784Y-85334847D01*
X102605471Y-85254035D01*
X102686284Y-85227097D01*
X102794033Y-85227097D01*
X102901783Y-85280972D01*
X102955658Y-85334847D01*
X103009532Y-85442597D01*
X103009532Y-85496471D01*
X102820971Y-85685033D01*
X102713221Y-85577284D01*
X103305844Y-85685033D02*
X102740158Y-86250719D01*
X102955658Y-86466218D01*
X103036470Y-86493155D01*
X103090345Y-86493155D01*
X103171157Y-86466218D01*
X103251969Y-86385406D01*
X103278906Y-86304593D01*
X103278906Y-86250719D01*
X103251969Y-86169906D01*
X103036470Y-85954407D01*
X104167841Y-86547030D02*
X103844592Y-86223781D01*
X104006216Y-86385406D02*
X103440531Y-86951091D01*
X103467468Y-86816404D01*
X103467468Y-86708654D01*
X103440531Y-86627842D01*
X103952341Y-87462902D02*
X104006216Y-87516776D01*
X104087028Y-87543714D01*
X104140903Y-87543714D01*
X104221715Y-87516776D01*
X104356402Y-87435964D01*
X104491089Y-87301277D01*
X104571902Y-87166590D01*
X104598839Y-87085778D01*
X104598839Y-87031903D01*
X104571902Y-86951091D01*
X104518027Y-86897216D01*
X104437215Y-86870279D01*
X104383340Y-86870279D01*
X104302528Y-86897216D01*
X104167841Y-86978028D01*
X104033154Y-87112715D01*
X103952341Y-87247402D01*
X103925404Y-87328215D01*
X103925404Y-87382089D01*
X103952341Y-87462902D01*
X102613096Y-55733781D02*
X102532284Y-55706844D01*
X102451471Y-55626032D01*
X102397597Y-55518282D01*
X102397597Y-55410532D01*
X102424534Y-55329720D01*
X102505346Y-55195033D01*
X102586158Y-55114221D01*
X102720845Y-55033409D01*
X102801658Y-55006471D01*
X102909407Y-55006471D01*
X103017157Y-55060346D01*
X103071032Y-55114221D01*
X103124906Y-55221971D01*
X103124906Y-55275845D01*
X102936345Y-55464407D01*
X102828595Y-55356658D01*
X103421218Y-55464407D02*
X102855532Y-56030093D01*
X103071032Y-56245592D01*
X103151844Y-56272529D01*
X103205719Y-56272529D01*
X103286531Y-56245592D01*
X103367343Y-56164780D01*
X103394280Y-56083967D01*
X103394280Y-56030093D01*
X103367343Y-55949280D01*
X103151844Y-55733781D01*
X104283215Y-56326404D02*
X103959966Y-56003155D01*
X104121590Y-56164780D02*
X103555905Y-56730465D01*
X103582842Y-56595778D01*
X103582842Y-56488028D01*
X103555905Y-56407216D01*
X102643722Y-91034407D02*
X102562910Y-91007470D01*
X102482097Y-90926658D01*
X102428223Y-90818908D01*
X102428223Y-90711158D01*
X102455160Y-90630346D01*
X102535972Y-90495659D01*
X102616784Y-90414847D01*
X102751471Y-90334035D01*
X102832284Y-90307097D01*
X102940033Y-90307097D01*
X103047783Y-90360972D01*
X103101658Y-90414847D01*
X103155532Y-90522597D01*
X103155532Y-90576471D01*
X102966971Y-90765033D01*
X102859221Y-90657284D01*
X103451844Y-90765033D02*
X102886158Y-91330719D01*
X103101658Y-91546218D01*
X103182470Y-91573155D01*
X103236345Y-91573155D01*
X103317157Y-91546218D01*
X103397969Y-91465406D01*
X103424906Y-91384593D01*
X103424906Y-91330719D01*
X103397969Y-91249906D01*
X103182470Y-91034407D01*
X104313841Y-91627030D02*
X103990592Y-91303781D01*
X104152216Y-91465406D02*
X103586531Y-92031091D01*
X103613468Y-91896404D01*
X103613468Y-91788654D01*
X103586531Y-91707842D01*
X104017529Y-92354340D02*
X104017529Y-92408215D01*
X104044467Y-92489027D01*
X104179154Y-92623714D01*
X104259966Y-92650651D01*
X104313841Y-92650651D01*
X104394653Y-92623714D01*
X104448528Y-92569839D01*
X104502402Y-92462089D01*
X104502402Y-91815592D01*
X104852589Y-92165778D01*
X75920473Y-55205033D02*
X76674720Y-54827910D01*
X76297597Y-55582157D01*
X76997969Y-55205033D02*
X77105719Y-55258908D01*
X77240406Y-55393595D01*
X77267343Y-55474407D01*
X77267343Y-55528282D01*
X77240406Y-55609094D01*
X77186531Y-55662969D01*
X77105719Y-55689906D01*
X77051844Y-55689906D01*
X76971032Y-55662969D01*
X76836345Y-55582157D01*
X76755532Y-55555219D01*
X76701658Y-55555219D01*
X76620845Y-55582157D01*
X76566971Y-55636032D01*
X76540033Y-55716844D01*
X76540033Y-55770719D01*
X76566971Y-55851531D01*
X76701658Y-55986218D01*
X76809407Y-56040093D01*
X77428967Y-56120905D02*
X77698341Y-55851531D01*
X76944094Y-56228654D02*
X77428967Y-56120905D01*
X77321218Y-56605778D01*
X78021590Y-56228654D02*
X78129340Y-56282529D01*
X78264027Y-56417216D01*
X78290964Y-56498028D01*
X78290964Y-56551903D01*
X78264027Y-56632715D01*
X78210152Y-56686590D01*
X78129340Y-56713528D01*
X78075465Y-56713528D01*
X77994653Y-56686590D01*
X77859966Y-56605778D01*
X77779154Y-56578841D01*
X77725279Y-56578841D01*
X77644467Y-56605778D01*
X77590592Y-56659653D01*
X77563654Y-56740465D01*
X77563654Y-56794340D01*
X77590592Y-56875152D01*
X77725279Y-57009839D01*
X77833028Y-57063714D01*
X102543722Y-98654407D02*
X102462910Y-98627470D01*
X102382097Y-98546658D01*
X102328223Y-98438908D01*
X102328223Y-98331158D01*
X102355160Y-98250346D01*
X102435972Y-98115659D01*
X102516784Y-98034847D01*
X102651471Y-97954035D01*
X102732284Y-97927097D01*
X102840033Y-97927097D01*
X102947783Y-97980972D01*
X103001658Y-98034847D01*
X103055532Y-98142597D01*
X103055532Y-98196471D01*
X102866971Y-98385033D01*
X102759221Y-98277284D01*
X103351844Y-98385033D02*
X102786158Y-98950719D01*
X103001658Y-99166218D01*
X103082470Y-99193155D01*
X103136345Y-99193155D01*
X103217157Y-99166218D01*
X103297969Y-99085406D01*
X103324906Y-99004593D01*
X103324906Y-98950719D01*
X103297969Y-98869906D01*
X103082470Y-98654407D01*
X104213841Y-99247030D02*
X103890592Y-98923781D01*
X104052216Y-99085406D02*
X103486531Y-99651091D01*
X103513468Y-99516404D01*
X103513468Y-99408654D01*
X103486531Y-99327842D01*
X104321590Y-100109027D02*
X104698714Y-99731903D01*
X103971404Y-100189839D02*
X104240778Y-99651091D01*
X104590964Y-100001277D01*
X102486158Y-83656844D02*
X102405346Y-83629906D01*
X102324534Y-83549094D01*
X102270659Y-83441345D01*
X102270659Y-83333595D01*
X102297597Y-83252783D01*
X102378409Y-83118096D01*
X102459221Y-83037284D01*
X102593908Y-82956471D01*
X102674720Y-82929534D01*
X102782470Y-82929534D01*
X102890219Y-82983409D01*
X102944094Y-83037284D01*
X102997969Y-83145033D01*
X102997969Y-83198908D01*
X102809407Y-83387470D01*
X102701658Y-83279720D01*
X103294280Y-83387470D02*
X102728595Y-83953155D01*
X103617529Y-83710719D01*
X103051844Y-84276404D01*
X103886903Y-83980093D02*
X103321218Y-84545778D01*
X103455905Y-84680465D01*
X103563654Y-84734340D01*
X103671404Y-84734340D01*
X103752216Y-84707402D01*
X103886903Y-84626590D01*
X103967715Y-84545778D01*
X104048528Y-84411091D01*
X104075465Y-84330279D01*
X104075465Y-84222529D01*
X104021590Y-84114780D01*
X103886903Y-83980093D01*
X76389722Y-80874407D02*
X76308910Y-80847470D01*
X76228097Y-80766658D01*
X76174223Y-80658908D01*
X76174223Y-80551158D01*
X76201160Y-80470346D01*
X76281972Y-80335659D01*
X76362784Y-80254847D01*
X76497471Y-80174035D01*
X76578284Y-80147097D01*
X76686033Y-80147097D01*
X76793783Y-80200972D01*
X76847658Y-80254847D01*
X76901532Y-80362597D01*
X76901532Y-80416471D01*
X76712971Y-80605033D01*
X76605221Y-80497284D01*
X77197844Y-80605033D02*
X76632158Y-81170719D01*
X76847658Y-81386218D01*
X76928470Y-81413155D01*
X76982345Y-81413155D01*
X77063157Y-81386218D01*
X77143969Y-81305406D01*
X77170906Y-81224593D01*
X77170906Y-81170719D01*
X77143969Y-81089906D01*
X76928470Y-80874407D01*
X77224781Y-81655592D02*
X77224781Y-81709467D01*
X77251719Y-81790279D01*
X77386406Y-81924966D01*
X77467218Y-81951903D01*
X77521093Y-81951903D01*
X77601905Y-81924966D01*
X77655780Y-81871091D01*
X77709654Y-81763341D01*
X77709654Y-81116844D01*
X78059841Y-81467030D01*
X77763529Y-82194340D02*
X77763529Y-82248215D01*
X77790467Y-82329027D01*
X77925154Y-82463714D01*
X78005966Y-82490651D01*
X78059841Y-82490651D01*
X78140653Y-82463714D01*
X78194528Y-82409839D01*
X78248402Y-82302089D01*
X78248402Y-81655592D01*
X78598589Y-82005778D01*
X76389722Y-85964407D02*
X76308910Y-85937470D01*
X76228097Y-85856658D01*
X76174223Y-85748908D01*
X76174223Y-85641158D01*
X76201160Y-85560346D01*
X76281972Y-85425659D01*
X76362784Y-85344847D01*
X76497471Y-85264035D01*
X76578284Y-85237097D01*
X76686033Y-85237097D01*
X76793783Y-85290972D01*
X76847658Y-85344847D01*
X76901532Y-85452597D01*
X76901532Y-85506471D01*
X76712971Y-85695033D01*
X76605221Y-85587284D01*
X77197844Y-85695033D02*
X76632158Y-86260719D01*
X76847658Y-86476218D01*
X76928470Y-86503155D01*
X76982345Y-86503155D01*
X77063157Y-86476218D01*
X77143969Y-86395406D01*
X77170906Y-86314593D01*
X77170906Y-86260719D01*
X77143969Y-86179906D01*
X76928470Y-85964407D01*
X77224781Y-86745592D02*
X77224781Y-86799467D01*
X77251719Y-86880279D01*
X77386406Y-87014966D01*
X77467218Y-87041903D01*
X77521093Y-87041903D01*
X77601905Y-87014966D01*
X77655780Y-86961091D01*
X77709654Y-86853341D01*
X77709654Y-86206844D01*
X78059841Y-86557030D01*
X78598589Y-87095778D02*
X78275340Y-86772529D01*
X78436964Y-86934154D02*
X77871279Y-87499839D01*
X77898216Y-87365152D01*
X77898216Y-87257402D01*
X77871279Y-87176590D01*
X102513096Y-73523781D02*
X102432284Y-73496844D01*
X102351471Y-73416032D01*
X102297597Y-73308282D01*
X102297597Y-73200532D01*
X102324534Y-73119720D01*
X102405346Y-72985033D01*
X102486158Y-72904221D01*
X102620845Y-72823409D01*
X102701658Y-72796471D01*
X102809407Y-72796471D01*
X102917157Y-72850346D01*
X102971032Y-72904221D01*
X103024906Y-73011971D01*
X103024906Y-73065845D01*
X102836345Y-73254407D01*
X102728595Y-73146658D01*
X103321218Y-73254407D02*
X102755532Y-73820093D01*
X102971032Y-74035592D01*
X103051844Y-74062529D01*
X103105719Y-74062529D01*
X103186531Y-74035592D01*
X103267343Y-73954780D01*
X103294280Y-73873967D01*
X103294280Y-73820093D01*
X103267343Y-73739280D01*
X103051844Y-73523781D01*
X103563654Y-74628215D02*
X103455905Y-74520465D01*
X103428967Y-74439653D01*
X103428967Y-74385778D01*
X103455905Y-74251091D01*
X103536717Y-74116404D01*
X103752216Y-73900905D01*
X103833028Y-73873967D01*
X103886903Y-73873967D01*
X103967715Y-73900905D01*
X104075465Y-74008654D01*
X104102402Y-74089467D01*
X104102402Y-74143341D01*
X104075465Y-74224154D01*
X103940778Y-74358841D01*
X103859966Y-74385778D01*
X103806091Y-74385778D01*
X103725279Y-74358841D01*
X103617529Y-74251091D01*
X103590592Y-74170279D01*
X103590592Y-74116404D01*
X103617529Y-74035592D01*
X76389722Y-93574407D02*
X76308910Y-93547470D01*
X76228097Y-93466658D01*
X76174223Y-93358908D01*
X76174223Y-93251158D01*
X76201160Y-93170346D01*
X76281972Y-93035659D01*
X76362784Y-92954847D01*
X76497471Y-92874035D01*
X76578284Y-92847097D01*
X76686033Y-92847097D01*
X76793783Y-92900972D01*
X76847658Y-92954847D01*
X76901532Y-93062597D01*
X76901532Y-93116471D01*
X76712971Y-93305033D01*
X76605221Y-93197284D01*
X77197844Y-93305033D02*
X76632158Y-93870719D01*
X76847658Y-94086218D01*
X76928470Y-94113155D01*
X76982345Y-94113155D01*
X77063157Y-94086218D01*
X77143969Y-94005406D01*
X77170906Y-93924593D01*
X77170906Y-93870719D01*
X77143969Y-93789906D01*
X76928470Y-93574407D01*
X78059841Y-94167030D02*
X77736592Y-93843781D01*
X77898216Y-94005406D02*
X77332531Y-94571091D01*
X77359468Y-94436404D01*
X77359468Y-94328654D01*
X77332531Y-94247842D01*
X78059841Y-94813528D02*
X77979028Y-94786590D01*
X77925154Y-94786590D01*
X77844341Y-94813528D01*
X77817404Y-94840465D01*
X77790467Y-94921277D01*
X77790467Y-94975152D01*
X77817404Y-95055964D01*
X77925154Y-95163714D01*
X78005966Y-95190651D01*
X78059841Y-95190651D01*
X78140653Y-95163714D01*
X78167590Y-95136776D01*
X78194528Y-95055964D01*
X78194528Y-95002089D01*
X78167590Y-94921277D01*
X78059841Y-94813528D01*
X78032903Y-94732715D01*
X78032903Y-94678841D01*
X78059841Y-94598028D01*
X78167590Y-94490279D01*
X78248402Y-94463341D01*
X78302277Y-94463341D01*
X78383089Y-94490279D01*
X78490839Y-94598028D01*
X78517776Y-94678841D01*
X78517776Y-94732715D01*
X78490839Y-94813528D01*
X78383089Y-94921277D01*
X78302277Y-94948215D01*
X78248402Y-94948215D01*
X78167590Y-94921277D01*
X102613096Y-60823781D02*
X102532284Y-60796844D01*
X102451471Y-60716032D01*
X102397597Y-60608282D01*
X102397597Y-60500532D01*
X102424534Y-60419720D01*
X102505346Y-60285033D01*
X102586158Y-60204221D01*
X102720845Y-60123409D01*
X102801658Y-60096471D01*
X102909407Y-60096471D01*
X103017157Y-60150346D01*
X103071032Y-60204221D01*
X103124906Y-60311971D01*
X103124906Y-60365845D01*
X102936345Y-60554407D01*
X102828595Y-60446658D01*
X103421218Y-60554407D02*
X102855532Y-61120093D01*
X103071032Y-61335592D01*
X103151844Y-61362529D01*
X103205719Y-61362529D01*
X103286531Y-61335592D01*
X103367343Y-61254780D01*
X103394280Y-61173967D01*
X103394280Y-61120093D01*
X103367343Y-61039280D01*
X103151844Y-60823781D01*
X103448155Y-61604966D02*
X103448155Y-61658841D01*
X103475093Y-61739653D01*
X103609780Y-61874340D01*
X103690592Y-61901277D01*
X103744467Y-61901277D01*
X103825279Y-61874340D01*
X103879154Y-61820465D01*
X103933028Y-61712715D01*
X103933028Y-61066218D01*
X104283215Y-61416404D01*
X76389722Y-91034407D02*
X76308910Y-91007470D01*
X76228097Y-90926658D01*
X76174223Y-90818908D01*
X76174223Y-90711158D01*
X76201160Y-90630346D01*
X76281972Y-90495659D01*
X76362784Y-90414847D01*
X76497471Y-90334035D01*
X76578284Y-90307097D01*
X76686033Y-90307097D01*
X76793783Y-90360972D01*
X76847658Y-90414847D01*
X76901532Y-90522597D01*
X76901532Y-90576471D01*
X76712971Y-90765033D01*
X76605221Y-90657284D01*
X77197844Y-90765033D02*
X76632158Y-91330719D01*
X76847658Y-91546218D01*
X76928470Y-91573155D01*
X76982345Y-91573155D01*
X77063157Y-91546218D01*
X77143969Y-91465406D01*
X77170906Y-91384593D01*
X77170906Y-91330719D01*
X77143969Y-91249906D01*
X76928470Y-91034407D01*
X78059841Y-91627030D02*
X77736592Y-91303781D01*
X77898216Y-91465406D02*
X77332531Y-92031091D01*
X77359468Y-91896404D01*
X77359468Y-91788654D01*
X77332531Y-91707842D01*
X78329215Y-91896404D02*
X78436964Y-92004154D01*
X78463902Y-92084966D01*
X78463902Y-92138841D01*
X78436964Y-92273528D01*
X78356152Y-92408215D01*
X78140653Y-92623714D01*
X78059841Y-92650651D01*
X78005966Y-92650651D01*
X77925154Y-92623714D01*
X77817404Y-92515964D01*
X77790467Y-92435152D01*
X77790467Y-92381277D01*
X77817404Y-92300465D01*
X77952091Y-92165778D01*
X78032903Y-92138841D01*
X78086778Y-92138841D01*
X78167590Y-92165778D01*
X78275340Y-92273528D01*
X78302277Y-92354340D01*
X78302277Y-92408215D01*
X78275340Y-92489027D01*
X76389722Y-88494407D02*
X76308910Y-88467470D01*
X76228097Y-88386658D01*
X76174223Y-88278908D01*
X76174223Y-88171158D01*
X76201160Y-88090346D01*
X76281972Y-87955659D01*
X76362784Y-87874847D01*
X76497471Y-87794035D01*
X76578284Y-87767097D01*
X76686033Y-87767097D01*
X76793783Y-87820972D01*
X76847658Y-87874847D01*
X76901532Y-87982597D01*
X76901532Y-88036471D01*
X76712971Y-88225033D01*
X76605221Y-88117284D01*
X77197844Y-88225033D02*
X76632158Y-88790719D01*
X76847658Y-89006218D01*
X76928470Y-89033155D01*
X76982345Y-89033155D01*
X77063157Y-89006218D01*
X77143969Y-88925406D01*
X77170906Y-88844593D01*
X77170906Y-88790719D01*
X77143969Y-88709906D01*
X76928470Y-88494407D01*
X77224781Y-89275592D02*
X77224781Y-89329467D01*
X77251719Y-89410279D01*
X77386406Y-89544966D01*
X77467218Y-89571903D01*
X77521093Y-89571903D01*
X77601905Y-89544966D01*
X77655780Y-89491091D01*
X77709654Y-89383341D01*
X77709654Y-88736844D01*
X78059841Y-89087030D01*
X77844341Y-90002902D02*
X77898216Y-90056776D01*
X77979028Y-90083714D01*
X78032903Y-90083714D01*
X78113715Y-90056776D01*
X78248402Y-89975964D01*
X78383089Y-89841277D01*
X78463902Y-89706590D01*
X78490839Y-89625778D01*
X78490839Y-89571903D01*
X78463902Y-89491091D01*
X78410027Y-89437216D01*
X78329215Y-89410279D01*
X78275340Y-89410279D01*
X78194528Y-89437216D01*
X78059841Y-89518028D01*
X77925154Y-89652715D01*
X77844341Y-89787402D01*
X77817404Y-89868215D01*
X77817404Y-89922089D01*
X77844341Y-90002902D01*
X102486158Y-58256844D02*
X102405346Y-58229906D01*
X102324534Y-58149094D01*
X102270659Y-58041345D01*
X102270659Y-57933595D01*
X102297597Y-57852783D01*
X102378409Y-57718096D01*
X102459221Y-57637284D01*
X102593908Y-57556471D01*
X102674720Y-57529534D01*
X102782470Y-57529534D01*
X102890219Y-57583409D01*
X102944094Y-57637284D01*
X102997969Y-57745033D01*
X102997969Y-57798908D01*
X102809407Y-57987470D01*
X102701658Y-57879720D01*
X103294280Y-57987470D02*
X102728595Y-58553155D01*
X103617529Y-58310719D01*
X103051844Y-58876404D01*
X103886903Y-58580093D02*
X103321218Y-59145778D01*
X103455905Y-59280465D01*
X103563654Y-59334340D01*
X103671404Y-59334340D01*
X103752216Y-59307402D01*
X103886903Y-59226590D01*
X103967715Y-59145778D01*
X104048528Y-59011091D01*
X104075465Y-58930279D01*
X104075465Y-58822529D01*
X104021590Y-58714780D01*
X103886903Y-58580093D01*
X102486158Y-96356844D02*
X102405346Y-96329906D01*
X102324534Y-96249094D01*
X102270659Y-96141345D01*
X102270659Y-96033595D01*
X102297597Y-95952783D01*
X102378409Y-95818096D01*
X102459221Y-95737284D01*
X102593908Y-95656471D01*
X102674720Y-95629534D01*
X102782470Y-95629534D01*
X102890219Y-95683409D01*
X102944094Y-95737284D01*
X102997969Y-95845033D01*
X102997969Y-95898908D01*
X102809407Y-96087470D01*
X102701658Y-95979720D01*
X103294280Y-96087470D02*
X102728595Y-96653155D01*
X103617529Y-96410719D01*
X103051844Y-96976404D01*
X103886903Y-96680093D02*
X103321218Y-97245778D01*
X103455905Y-97380465D01*
X103563654Y-97434340D01*
X103671404Y-97434340D01*
X103752216Y-97407402D01*
X103886903Y-97326590D01*
X103967715Y-97245778D01*
X104048528Y-97111091D01*
X104075465Y-97030279D01*
X104075465Y-96922529D01*
X104021590Y-96814780D01*
X103886903Y-96680093D01*
X102513096Y-63363781D02*
X102432284Y-63336844D01*
X102351471Y-63256032D01*
X102297597Y-63148282D01*
X102297597Y-63040532D01*
X102324534Y-62959720D01*
X102405346Y-62825033D01*
X102486158Y-62744221D01*
X102620845Y-62663409D01*
X102701658Y-62636471D01*
X102809407Y-62636471D01*
X102917157Y-62690346D01*
X102971032Y-62744221D01*
X103024906Y-62851971D01*
X103024906Y-62905845D01*
X102836345Y-63094407D01*
X102728595Y-62986658D01*
X103321218Y-63094407D02*
X102755532Y-63660093D01*
X102971032Y-63875592D01*
X103051844Y-63902529D01*
X103105719Y-63902529D01*
X103186531Y-63875592D01*
X103267343Y-63794780D01*
X103294280Y-63713967D01*
X103294280Y-63660093D01*
X103267343Y-63579280D01*
X103051844Y-63363781D01*
X103267343Y-64171903D02*
X103617529Y-64522089D01*
X103644467Y-64118028D01*
X103725279Y-64198841D01*
X103806091Y-64225778D01*
X103859966Y-64225778D01*
X103940778Y-64198841D01*
X104075465Y-64064154D01*
X104102402Y-63983341D01*
X104102402Y-63929467D01*
X104075465Y-63848654D01*
X103913841Y-63687030D01*
X103833028Y-63660093D01*
X103779154Y-63660093D01*
X102513096Y-53203781D02*
X102432284Y-53176844D01*
X102351471Y-53096032D01*
X102297597Y-52988282D01*
X102297597Y-52880532D01*
X102324534Y-52799720D01*
X102405346Y-52665033D01*
X102486158Y-52584221D01*
X102620845Y-52503409D01*
X102701658Y-52476471D01*
X102809407Y-52476471D01*
X102917157Y-52530346D01*
X102971032Y-52584221D01*
X103024906Y-52691971D01*
X103024906Y-52745845D01*
X102836345Y-52934407D01*
X102728595Y-52826658D01*
X103321218Y-52934407D02*
X102755532Y-53500093D01*
X102971032Y-53715592D01*
X103051844Y-53742529D01*
X103105719Y-53742529D01*
X103186531Y-53715592D01*
X103267343Y-53634780D01*
X103294280Y-53553967D01*
X103294280Y-53500093D01*
X103267343Y-53419280D01*
X103051844Y-53203781D01*
X103428967Y-54173528D02*
X103482842Y-54227402D01*
X103563654Y-54254340D01*
X103617529Y-54254340D01*
X103698341Y-54227402D01*
X103833028Y-54146590D01*
X103967715Y-54011903D01*
X104048528Y-53877216D01*
X104075465Y-53796404D01*
X104075465Y-53742529D01*
X104048528Y-53661717D01*
X103994653Y-53607842D01*
X103913841Y-53580905D01*
X103859966Y-53580905D01*
X103779154Y-53607842D01*
X103644467Y-53688654D01*
X103509780Y-53823341D01*
X103428967Y-53958028D01*
X103402030Y-54038841D01*
X103402030Y-54092715D01*
X103428967Y-54173528D01*
X102513096Y-68443781D02*
X102432284Y-68416844D01*
X102351471Y-68336032D01*
X102297597Y-68228282D01*
X102297597Y-68120532D01*
X102324534Y-68039720D01*
X102405346Y-67905033D01*
X102486158Y-67824221D01*
X102620845Y-67743409D01*
X102701658Y-67716471D01*
X102809407Y-67716471D01*
X102917157Y-67770346D01*
X102971032Y-67824221D01*
X103024906Y-67931971D01*
X103024906Y-67985845D01*
X102836345Y-68174407D01*
X102728595Y-68066658D01*
X103321218Y-68174407D02*
X102755532Y-68740093D01*
X102971032Y-68955592D01*
X103051844Y-68982529D01*
X103105719Y-68982529D01*
X103186531Y-68955592D01*
X103267343Y-68874780D01*
X103294280Y-68793967D01*
X103294280Y-68740093D01*
X103267343Y-68659280D01*
X103051844Y-68443781D01*
X103590592Y-69575152D02*
X103321218Y-69305778D01*
X103563654Y-69009467D01*
X103563654Y-69063341D01*
X103590592Y-69144154D01*
X103725279Y-69278841D01*
X103806091Y-69305778D01*
X103859966Y-69305778D01*
X103940778Y-69278841D01*
X104075465Y-69144154D01*
X104102402Y-69063341D01*
X104102402Y-69009467D01*
X104075465Y-68928654D01*
X103940778Y-68793967D01*
X103859966Y-68767030D01*
X103806091Y-68767030D01*
X86495238Y-103978809D02*
X86380952Y-104016904D01*
X86190476Y-104016904D01*
X86114285Y-103978809D01*
X86076190Y-103940714D01*
X86038095Y-103864523D01*
X86038095Y-103788333D01*
X86076190Y-103712142D01*
X86114285Y-103674047D01*
X86190476Y-103635952D01*
X86342857Y-103597857D01*
X86419047Y-103559761D01*
X86457142Y-103521666D01*
X86495238Y-103445476D01*
X86495238Y-103369285D01*
X86457142Y-103293095D01*
X86419047Y-103255000D01*
X86342857Y-103216904D01*
X86152380Y-103216904D01*
X86038095Y-103255000D01*
X85771428Y-103216904D02*
X85580952Y-104016904D01*
X85428571Y-103445476D01*
X85276190Y-104016904D01*
X85085714Y-103216904D01*
X84780952Y-104016904D02*
X84780952Y-103216904D01*
X84590476Y-103216904D01*
X84476190Y-103255000D01*
X84400000Y-103331190D01*
X84361904Y-103407380D01*
X84323809Y-103559761D01*
X84323809Y-103674047D01*
X84361904Y-103826428D01*
X84400000Y-103902619D01*
X84476190Y-103978809D01*
X84590476Y-104016904D01*
X84780952Y-104016904D01*
X83980952Y-104016904D02*
X83980952Y-103216904D01*
X83447619Y-103216904D02*
X83295238Y-103216904D01*
X83219047Y-103255000D01*
X83142857Y-103331190D01*
X83104761Y-103483571D01*
X83104761Y-103750238D01*
X83142857Y-103902619D01*
X83219047Y-103978809D01*
X83295238Y-104016904D01*
X83447619Y-104016904D01*
X83523809Y-103978809D01*
X83600000Y-103902619D01*
X83638095Y-103750238D01*
X83638095Y-103483571D01*
X83600000Y-103331190D01*
X83523809Y-103255000D01*
X83447619Y-103216904D01*
X102513096Y-81143781D02*
X102432284Y-81116844D01*
X102351471Y-81036032D01*
X102297597Y-80928282D01*
X102297597Y-80820532D01*
X102324534Y-80739720D01*
X102405346Y-80605033D01*
X102486158Y-80524221D01*
X102620845Y-80443409D01*
X102701658Y-80416471D01*
X102809407Y-80416471D01*
X102917157Y-80470346D01*
X102971032Y-80524221D01*
X103024906Y-80631971D01*
X103024906Y-80685845D01*
X102836345Y-80874407D01*
X102728595Y-80766658D01*
X103321218Y-80874407D02*
X102755532Y-81440093D01*
X102971032Y-81655592D01*
X103051844Y-81682529D01*
X103105719Y-81682529D01*
X103186531Y-81655592D01*
X103267343Y-81574780D01*
X103294280Y-81493967D01*
X103294280Y-81440093D01*
X103267343Y-81359280D01*
X103051844Y-81143781D01*
X103913841Y-81467030D02*
X104021590Y-81574780D01*
X104048528Y-81655592D01*
X104048528Y-81709467D01*
X104021590Y-81844154D01*
X103940778Y-81978841D01*
X103725279Y-82194340D01*
X103644467Y-82221277D01*
X103590592Y-82221277D01*
X103509780Y-82194340D01*
X103402030Y-82086590D01*
X103375093Y-82005778D01*
X103375093Y-81951903D01*
X103402030Y-81871091D01*
X103536717Y-81736404D01*
X103617529Y-81709467D01*
X103671404Y-81709467D01*
X103752216Y-81736404D01*
X103859966Y-81844154D01*
X103886903Y-81924966D01*
X103886903Y-81978841D01*
X103859966Y-82059653D01*
X76389722Y-67920407D02*
X76308910Y-67893470D01*
X76228097Y-67812658D01*
X76174223Y-67704908D01*
X76174223Y-67597158D01*
X76201160Y-67516346D01*
X76281972Y-67381659D01*
X76362784Y-67300847D01*
X76497471Y-67220035D01*
X76578284Y-67193097D01*
X76686033Y-67193097D01*
X76793783Y-67246972D01*
X76847658Y-67300847D01*
X76901532Y-67408597D01*
X76901532Y-67462471D01*
X76712971Y-67651033D01*
X76605221Y-67543284D01*
X77197844Y-67651033D02*
X76632158Y-68216719D01*
X76847658Y-68432218D01*
X76928470Y-68459155D01*
X76982345Y-68459155D01*
X77063157Y-68432218D01*
X77143969Y-68351406D01*
X77170906Y-68270593D01*
X77170906Y-68216719D01*
X77143969Y-68135906D01*
X76928470Y-67920407D01*
X77224781Y-68701592D02*
X77224781Y-68755467D01*
X77251719Y-68836279D01*
X77386406Y-68970966D01*
X77467218Y-68997903D01*
X77521093Y-68997903D01*
X77601905Y-68970966D01*
X77655780Y-68917091D01*
X77709654Y-68809341D01*
X77709654Y-68162844D01*
X78059841Y-68513030D01*
X78059841Y-69159528D02*
X77979028Y-69132590D01*
X77925154Y-69132590D01*
X77844341Y-69159528D01*
X77817404Y-69186465D01*
X77790467Y-69267277D01*
X77790467Y-69321152D01*
X77817404Y-69401964D01*
X77925154Y-69509714D01*
X78005966Y-69536651D01*
X78059841Y-69536651D01*
X78140653Y-69509714D01*
X78167590Y-69482776D01*
X78194528Y-69401964D01*
X78194528Y-69348089D01*
X78167590Y-69267277D01*
X78059841Y-69159528D01*
X78032903Y-69078715D01*
X78032903Y-69024841D01*
X78059841Y-68944028D01*
X78167590Y-68836279D01*
X78248402Y-68809341D01*
X78302277Y-68809341D01*
X78383089Y-68836279D01*
X78490839Y-68944028D01*
X78517776Y-69024841D01*
X78517776Y-69078715D01*
X78490839Y-69159528D01*
X78383089Y-69267277D01*
X78302277Y-69294215D01*
X78248402Y-69294215D01*
X78167590Y-69267277D01*
X102486158Y-70956844D02*
X102405346Y-70929906D01*
X102324534Y-70849094D01*
X102270659Y-70741345D01*
X102270659Y-70633595D01*
X102297597Y-70552783D01*
X102378409Y-70418096D01*
X102459221Y-70337284D01*
X102593908Y-70256471D01*
X102674720Y-70229534D01*
X102782470Y-70229534D01*
X102890219Y-70283409D01*
X102944094Y-70337284D01*
X102997969Y-70445033D01*
X102997969Y-70498908D01*
X102809407Y-70687470D01*
X102701658Y-70579720D01*
X103294280Y-70687470D02*
X102728595Y-71253155D01*
X103617529Y-71010719D01*
X103051844Y-71576404D01*
X103886903Y-71280093D02*
X103321218Y-71845778D01*
X103455905Y-71980465D01*
X103563654Y-72034340D01*
X103671404Y-72034340D01*
X103752216Y-72007402D01*
X103886903Y-71926590D01*
X103967715Y-71845778D01*
X104048528Y-71711091D01*
X104075465Y-71630279D01*
X104075465Y-71522529D01*
X104021590Y-71414780D01*
X103886903Y-71280093D01*
X76886158Y-83656844D02*
X76805346Y-83629906D01*
X76724534Y-83549094D01*
X76670659Y-83441345D01*
X76670659Y-83333595D01*
X76697597Y-83252783D01*
X76778409Y-83118096D01*
X76859221Y-83037284D01*
X76993908Y-82956471D01*
X77074720Y-82929534D01*
X77182470Y-82929534D01*
X77290219Y-82983409D01*
X77344094Y-83037284D01*
X77397969Y-83145033D01*
X77397969Y-83198908D01*
X77209407Y-83387470D01*
X77101658Y-83279720D01*
X77694280Y-83387470D02*
X77128595Y-83953155D01*
X78017529Y-83710719D01*
X77451844Y-84276404D01*
X78286903Y-83980093D02*
X77721218Y-84545778D01*
X77855905Y-84680465D01*
X77963654Y-84734340D01*
X78071404Y-84734340D01*
X78152216Y-84707402D01*
X78286903Y-84626590D01*
X78367715Y-84545778D01*
X78448528Y-84411091D01*
X78475465Y-84330279D01*
X78475465Y-84222529D01*
X78421590Y-84114780D01*
X78286903Y-83980093D01*
X76389722Y-101194407D02*
X76308910Y-101167470D01*
X76228097Y-101086658D01*
X76174223Y-100978908D01*
X76174223Y-100871158D01*
X76201160Y-100790346D01*
X76281972Y-100655659D01*
X76362784Y-100574847D01*
X76497471Y-100494035D01*
X76578284Y-100467097D01*
X76686033Y-100467097D01*
X76793783Y-100520972D01*
X76847658Y-100574847D01*
X76901532Y-100682597D01*
X76901532Y-100736471D01*
X76712971Y-100925033D01*
X76605221Y-100817284D01*
X77197844Y-100925033D02*
X76632158Y-101490719D01*
X76847658Y-101706218D01*
X76928470Y-101733155D01*
X76982345Y-101733155D01*
X77063157Y-101706218D01*
X77143969Y-101625406D01*
X77170906Y-101544593D01*
X77170906Y-101490719D01*
X77143969Y-101409906D01*
X76928470Y-101194407D01*
X78059841Y-101787030D02*
X77736592Y-101463781D01*
X77898216Y-101625406D02*
X77332531Y-102191091D01*
X77359468Y-102056404D01*
X77359468Y-101948654D01*
X77332531Y-101867842D01*
X77979028Y-102837589D02*
X77871279Y-102729839D01*
X77844341Y-102649027D01*
X77844341Y-102595152D01*
X77871279Y-102460465D01*
X77952091Y-102325778D01*
X78167590Y-102110279D01*
X78248402Y-102083341D01*
X78302277Y-102083341D01*
X78383089Y-102110279D01*
X78490839Y-102218028D01*
X78517776Y-102298841D01*
X78517776Y-102352715D01*
X78490839Y-102433528D01*
X78356152Y-102568215D01*
X78275340Y-102595152D01*
X78221465Y-102595152D01*
X78140653Y-102568215D01*
X78032903Y-102460465D01*
X78005966Y-102379653D01*
X78005966Y-102325778D01*
X78032903Y-102244966D01*
X102513096Y-78603781D02*
X102432284Y-78576844D01*
X102351471Y-78496032D01*
X102297597Y-78388282D01*
X102297597Y-78280532D01*
X102324534Y-78199720D01*
X102405346Y-78065033D01*
X102486158Y-77984221D01*
X102620845Y-77903409D01*
X102701658Y-77876471D01*
X102809407Y-77876471D01*
X102917157Y-77930346D01*
X102971032Y-77984221D01*
X103024906Y-78091971D01*
X103024906Y-78145845D01*
X102836345Y-78334407D01*
X102728595Y-78226658D01*
X103321218Y-78334407D02*
X102755532Y-78900093D01*
X102971032Y-79115592D01*
X103051844Y-79142529D01*
X103105719Y-79142529D01*
X103186531Y-79115592D01*
X103267343Y-79034780D01*
X103294280Y-78953967D01*
X103294280Y-78900093D01*
X103267343Y-78819280D01*
X103051844Y-78603781D01*
X103644467Y-79304154D02*
X103563654Y-79277216D01*
X103509780Y-79277216D01*
X103428967Y-79304154D01*
X103402030Y-79331091D01*
X103375093Y-79411903D01*
X103375093Y-79465778D01*
X103402030Y-79546590D01*
X103509780Y-79654340D01*
X103590592Y-79681277D01*
X103644467Y-79681277D01*
X103725279Y-79654340D01*
X103752216Y-79627402D01*
X103779154Y-79546590D01*
X103779154Y-79492715D01*
X103752216Y-79411903D01*
X103644467Y-79304154D01*
X103617529Y-79223341D01*
X103617529Y-79169467D01*
X103644467Y-79088654D01*
X103752216Y-78980905D01*
X103833028Y-78953967D01*
X103886903Y-78953967D01*
X103967715Y-78980905D01*
X104075465Y-79088654D01*
X104102402Y-79169467D01*
X104102402Y-79223341D01*
X104075465Y-79304154D01*
X103967715Y-79411903D01*
X103886903Y-79438841D01*
X103833028Y-79438841D01*
X103752216Y-79411903D01*
X76489847Y-63164407D02*
X76840033Y-63514593D01*
X76866971Y-63110532D01*
X76947783Y-63191345D01*
X77028595Y-63218282D01*
X77082470Y-63218282D01*
X77163282Y-63191345D01*
X77297969Y-63056658D01*
X77324906Y-62975845D01*
X77324906Y-62921971D01*
X77297969Y-62841158D01*
X77136345Y-62679534D01*
X77055532Y-62652597D01*
X77001658Y-62652597D01*
X77001658Y-63676218D02*
X77755905Y-63299094D01*
X77378781Y-64053341D01*
X77513468Y-64188028D02*
X77863654Y-64538215D01*
X77890592Y-64134154D01*
X77971404Y-64214966D01*
X78052216Y-64241903D01*
X78106091Y-64241903D01*
X78186903Y-64214966D01*
X78321590Y-64080279D01*
X78348528Y-63999467D01*
X78348528Y-63945592D01*
X78321590Y-63864780D01*
X78159966Y-63703155D01*
X78079154Y-63676218D01*
X78025279Y-63676218D01*
X74922131Y-59096691D02*
X75272317Y-59446877D01*
X75299255Y-59042816D01*
X75380067Y-59123629D01*
X75460879Y-59150566D01*
X75514754Y-59150566D01*
X75595566Y-59123629D01*
X75730253Y-58988942D01*
X75757190Y-58908129D01*
X75757190Y-58854255D01*
X75730253Y-58773442D01*
X75568629Y-58611818D01*
X75487816Y-58584881D01*
X75433942Y-58584881D01*
X75433942Y-59608502D02*
X76188189Y-59231378D01*
X75811065Y-59985625D01*
X75945752Y-60120312D02*
X76295938Y-60470499D01*
X76322876Y-60066438D01*
X76403688Y-60147250D01*
X76484500Y-60174187D01*
X76538375Y-60174187D01*
X76619187Y-60147250D01*
X76753874Y-60012563D01*
X76780812Y-59931751D01*
X76780812Y-59877876D01*
X76753874Y-59797064D01*
X76592250Y-59635439D01*
X76511438Y-59608502D01*
X76457563Y-59608502D01*
X77023248Y-59958688D02*
X77454247Y-60389687D01*
X77238748Y-60874560D02*
X77427309Y-61063122D01*
X77804433Y-60847622D02*
X77535059Y-60578248D01*
X76969374Y-61143934D01*
X77238748Y-61413308D01*
X78046870Y-61090059D02*
X77481184Y-61655744D01*
X78370118Y-61413308D01*
X77804433Y-61978993D01*
X97909523Y-103978809D02*
X97795238Y-104016904D01*
X97604761Y-104016904D01*
X97528571Y-103978809D01*
X97490476Y-103940714D01*
X97452380Y-103864523D01*
X97452380Y-103788333D01*
X97490476Y-103712142D01*
X97528571Y-103674047D01*
X97604761Y-103635952D01*
X97757142Y-103597857D01*
X97833333Y-103559761D01*
X97871428Y-103521666D01*
X97909523Y-103445476D01*
X97909523Y-103369285D01*
X97871428Y-103293095D01*
X97833333Y-103255000D01*
X97757142Y-103216904D01*
X97566666Y-103216904D01*
X97452380Y-103255000D01*
X97185714Y-103216904D02*
X96995238Y-104016904D01*
X96842857Y-103445476D01*
X96690476Y-104016904D01*
X96500000Y-103216904D01*
X95738095Y-103940714D02*
X95776190Y-103978809D01*
X95890476Y-104016904D01*
X95966666Y-104016904D01*
X96080952Y-103978809D01*
X96157142Y-103902619D01*
X96195238Y-103826428D01*
X96233333Y-103674047D01*
X96233333Y-103559761D01*
X96195238Y-103407380D01*
X96157142Y-103331190D01*
X96080952Y-103255000D01*
X95966666Y-103216904D01*
X95890476Y-103216904D01*
X95776190Y-103255000D01*
X95738095Y-103293095D01*
X95014285Y-104016904D02*
X95395238Y-104016904D01*
X95395238Y-103216904D01*
X94747619Y-104016904D02*
X94747619Y-103216904D01*
X94290476Y-104016904D02*
X94633333Y-103559761D01*
X94290476Y-103216904D02*
X94747619Y-103674047D01*
X76389722Y-75794407D02*
X76308910Y-75767470D01*
X76228097Y-75686658D01*
X76174223Y-75578908D01*
X76174223Y-75471158D01*
X76201160Y-75390346D01*
X76281972Y-75255659D01*
X76362784Y-75174847D01*
X76497471Y-75094035D01*
X76578284Y-75067097D01*
X76686033Y-75067097D01*
X76793783Y-75120972D01*
X76847658Y-75174847D01*
X76901532Y-75282597D01*
X76901532Y-75336471D01*
X76712971Y-75525033D01*
X76605221Y-75417284D01*
X77197844Y-75525033D02*
X76632158Y-76090719D01*
X76847658Y-76306218D01*
X76928470Y-76333155D01*
X76982345Y-76333155D01*
X77063157Y-76306218D01*
X77143969Y-76225406D01*
X77170906Y-76144593D01*
X77170906Y-76090719D01*
X77143969Y-76009906D01*
X76928470Y-75794407D01*
X77224781Y-76575592D02*
X77224781Y-76629467D01*
X77251719Y-76710279D01*
X77386406Y-76844966D01*
X77467218Y-76871903D01*
X77521093Y-76871903D01*
X77601905Y-76844966D01*
X77655780Y-76791091D01*
X77709654Y-76683341D01*
X77709654Y-76036844D01*
X78059841Y-76387030D01*
X77979028Y-77437589D02*
X77871279Y-77329839D01*
X77844341Y-77249027D01*
X77844341Y-77195152D01*
X77871279Y-77060465D01*
X77952091Y-76925778D01*
X78167590Y-76710279D01*
X78248402Y-76683341D01*
X78302277Y-76683341D01*
X78383089Y-76710279D01*
X78490839Y-76818028D01*
X78517776Y-76898841D01*
X78517776Y-76952715D01*
X78490839Y-77033528D01*
X78356152Y-77168215D01*
X78275340Y-77195152D01*
X78221465Y-77195152D01*
X78140653Y-77168215D01*
X78032903Y-77060465D01*
X78005966Y-76979653D01*
X78005966Y-76925778D01*
X78032903Y-76844966D01*
X76389722Y-98654407D02*
X76308910Y-98627470D01*
X76228097Y-98546658D01*
X76174223Y-98438908D01*
X76174223Y-98331158D01*
X76201160Y-98250346D01*
X76281972Y-98115659D01*
X76362784Y-98034847D01*
X76497471Y-97954035D01*
X76578284Y-97927097D01*
X76686033Y-97927097D01*
X76793783Y-97980972D01*
X76847658Y-98034847D01*
X76901532Y-98142597D01*
X76901532Y-98196471D01*
X76712971Y-98385033D01*
X76605221Y-98277284D01*
X77197844Y-98385033D02*
X76632158Y-98950719D01*
X76847658Y-99166218D01*
X76928470Y-99193155D01*
X76982345Y-99193155D01*
X77063157Y-99166218D01*
X77143969Y-99085406D01*
X77170906Y-99004593D01*
X77170906Y-98950719D01*
X77143969Y-98869906D01*
X76928470Y-98654407D01*
X78059841Y-99247030D02*
X77736592Y-98923781D01*
X77898216Y-99085406D02*
X77332531Y-99651091D01*
X77359468Y-99516404D01*
X77359468Y-99408654D01*
X77332531Y-99327842D01*
X77682717Y-100001277D02*
X78059841Y-100378401D01*
X78383089Y-99570279D01*
X102497722Y-101194407D02*
X102416910Y-101167470D01*
X102336097Y-101086658D01*
X102282223Y-100978908D01*
X102282223Y-100871158D01*
X102309160Y-100790346D01*
X102389972Y-100655659D01*
X102470784Y-100574847D01*
X102605471Y-100494035D01*
X102686284Y-100467097D01*
X102794033Y-100467097D01*
X102901783Y-100520972D01*
X102955658Y-100574847D01*
X103009532Y-100682597D01*
X103009532Y-100736471D01*
X102820971Y-100925033D01*
X102713221Y-100817284D01*
X103305844Y-100925033D02*
X102740158Y-101490719D01*
X102955658Y-101706218D01*
X103036470Y-101733155D01*
X103090345Y-101733155D01*
X103171157Y-101706218D01*
X103251969Y-101625406D01*
X103278906Y-101544593D01*
X103278906Y-101490719D01*
X103251969Y-101409906D01*
X103036470Y-101194407D01*
X104167841Y-101787030D02*
X103844592Y-101463781D01*
X104006216Y-101625406D02*
X103440531Y-102191091D01*
X103467468Y-102056404D01*
X103467468Y-101948654D01*
X103440531Y-101867842D01*
X104113966Y-102864526D02*
X103844592Y-102595152D01*
X104087028Y-102298841D01*
X104087028Y-102352715D01*
X104113966Y-102433528D01*
X104248653Y-102568215D01*
X104329465Y-102595152D01*
X104383340Y-102595152D01*
X104464152Y-102568215D01*
X104598839Y-102433528D01*
X104625776Y-102352715D01*
X104625776Y-102298841D01*
X104598839Y-102218028D01*
X104464152Y-102083341D01*
X104383340Y-102056404D01*
X104329465Y-102056404D01*
X102413096Y-76033781D02*
X102332284Y-76006844D01*
X102251471Y-75926032D01*
X102197597Y-75818282D01*
X102197597Y-75710532D01*
X102224534Y-75629720D01*
X102305346Y-75495033D01*
X102386158Y-75414221D01*
X102520845Y-75333409D01*
X102601658Y-75306471D01*
X102709407Y-75306471D01*
X102817157Y-75360346D01*
X102871032Y-75414221D01*
X102924906Y-75521971D01*
X102924906Y-75575845D01*
X102736345Y-75764407D01*
X102628595Y-75656658D01*
X103221218Y-75764407D02*
X102655532Y-76330093D01*
X102871032Y-76545592D01*
X102951844Y-76572529D01*
X103005719Y-76572529D01*
X103086531Y-76545592D01*
X103167343Y-76464780D01*
X103194280Y-76383967D01*
X103194280Y-76330093D01*
X103167343Y-76249280D01*
X102951844Y-76033781D01*
X103167343Y-76841903D02*
X103544467Y-77219027D01*
X103867715Y-76410905D01*
X102513096Y-65903781D02*
X102432284Y-65876844D01*
X102351471Y-65796032D01*
X102297597Y-65688282D01*
X102297597Y-65580532D01*
X102324534Y-65499720D01*
X102405346Y-65365033D01*
X102486158Y-65284221D01*
X102620845Y-65203409D01*
X102701658Y-65176471D01*
X102809407Y-65176471D01*
X102917157Y-65230346D01*
X102971032Y-65284221D01*
X103024906Y-65391971D01*
X103024906Y-65445845D01*
X102836345Y-65634407D01*
X102728595Y-65526658D01*
X103321218Y-65634407D02*
X102755532Y-66200093D01*
X102971032Y-66415592D01*
X103051844Y-66442529D01*
X103105719Y-66442529D01*
X103186531Y-66415592D01*
X103267343Y-66334780D01*
X103294280Y-66253967D01*
X103294280Y-66200093D01*
X103267343Y-66119280D01*
X103051844Y-65903781D01*
X103752216Y-66819653D02*
X104129340Y-66442529D01*
X103402030Y-66900465D02*
X103671404Y-66361717D01*
X104021590Y-66711903D01*
X74554788Y-62921226D02*
X74824162Y-63190600D01*
X74662537Y-62705727D02*
X74285414Y-63459974D01*
X75039661Y-63082850D01*
X75228223Y-63271412D02*
X74662537Y-63837097D01*
X74797224Y-63971784D01*
X74904974Y-64025659D01*
X75012723Y-64025659D01*
X75093536Y-63998722D01*
X75228223Y-63917910D01*
X75309035Y-63837097D01*
X75389847Y-63702410D01*
X75416784Y-63621598D01*
X75416784Y-63513849D01*
X75362910Y-63406099D01*
X75228223Y-63271412D01*
X76063282Y-64214221D02*
X76063282Y-64160346D01*
X76009407Y-64052597D01*
X75955532Y-63998722D01*
X75847783Y-63944847D01*
X75740033Y-63944847D01*
X75659221Y-63971784D01*
X75524534Y-64052597D01*
X75443722Y-64133409D01*
X75362910Y-64268096D01*
X75335972Y-64348908D01*
X75335972Y-64456658D01*
X75389847Y-64564407D01*
X75443722Y-64618282D01*
X75551471Y-64672157D01*
X75605346Y-64672157D01*
X76278781Y-64214221D02*
X76709780Y-64645219D01*
X76144094Y-65318654D02*
X76898341Y-64941531D01*
X76521218Y-65695778D01*
X77598714Y-65641903D02*
X77140778Y-65722715D01*
X77275465Y-65318654D02*
X76709780Y-65884340D01*
X76925279Y-66099839D01*
X77006091Y-66126776D01*
X77059966Y-66126776D01*
X77140778Y-66099839D01*
X77221590Y-66019027D01*
X77248528Y-65938215D01*
X77248528Y-65884340D01*
X77221590Y-65803528D01*
X77006091Y-65588028D01*
X77544839Y-66180651D02*
X77733401Y-66369213D01*
X78110524Y-66153714D02*
X77841150Y-65884340D01*
X77275465Y-66450025D01*
X77544839Y-66719399D01*
X78245211Y-66881024D02*
X78056650Y-66692462D01*
X78352961Y-66396150D02*
X77787276Y-66961836D01*
X78056650Y-67231210D01*
X102497722Y-93574407D02*
X102416910Y-93547470D01*
X102336097Y-93466658D01*
X102282223Y-93358908D01*
X102282223Y-93251158D01*
X102309160Y-93170346D01*
X102389972Y-93035659D01*
X102470784Y-92954847D01*
X102605471Y-92874035D01*
X102686284Y-92847097D01*
X102794033Y-92847097D01*
X102901783Y-92900972D01*
X102955658Y-92954847D01*
X103009532Y-93062597D01*
X103009532Y-93116471D01*
X102820971Y-93305033D01*
X102713221Y-93197284D01*
X103305844Y-93305033D02*
X102740158Y-93870719D01*
X102955658Y-94086218D01*
X103036470Y-94113155D01*
X103090345Y-94113155D01*
X103171157Y-94086218D01*
X103251969Y-94005406D01*
X103278906Y-93924593D01*
X103278906Y-93870719D01*
X103251969Y-93789906D01*
X103036470Y-93574407D01*
X104167841Y-94167030D02*
X103844592Y-93843781D01*
X104006216Y-94005406D02*
X103440531Y-94571091D01*
X103467468Y-94436404D01*
X103467468Y-94328654D01*
X103440531Y-94247842D01*
X103790717Y-94921277D02*
X104140903Y-95271463D01*
X104167841Y-94867402D01*
X104248653Y-94948215D01*
X104329465Y-94975152D01*
X104383340Y-94975152D01*
X104464152Y-94948215D01*
X104598839Y-94813528D01*
X104625776Y-94732715D01*
X104625776Y-94678841D01*
X104598839Y-94598028D01*
X104437215Y-94436404D01*
X104356402Y-94409467D01*
X104302528Y-94409467D01*
X76886158Y-58256844D02*
X76805346Y-58229906D01*
X76724534Y-58149094D01*
X76670659Y-58041345D01*
X76670659Y-57933595D01*
X76697597Y-57852783D01*
X76778409Y-57718096D01*
X76859221Y-57637284D01*
X76993908Y-57556471D01*
X77074720Y-57529534D01*
X77182470Y-57529534D01*
X77290219Y-57583409D01*
X77344094Y-57637284D01*
X77397969Y-57745033D01*
X77397969Y-57798908D01*
X77209407Y-57987470D01*
X77101658Y-57879720D01*
X77694280Y-57987470D02*
X77128595Y-58553155D01*
X78017529Y-58310719D01*
X77451844Y-58876404D01*
X78286903Y-58580093D02*
X77721218Y-59145778D01*
X77855905Y-59280465D01*
X77963654Y-59334340D01*
X78071404Y-59334340D01*
X78152216Y-59307402D01*
X78286903Y-59226590D01*
X78367715Y-59145778D01*
X78448528Y-59011091D01*
X78475465Y-58930279D01*
X78475465Y-58822529D01*
X78421590Y-58714780D01*
X78286903Y-58580093D01*
X75753129Y-52527690D02*
X76507377Y-52150566D01*
X76130253Y-52904813D01*
X76776751Y-53012563D02*
X76884500Y-53066438D01*
X76938375Y-53066438D01*
X77019187Y-53039500D01*
X77100000Y-52958688D01*
X77126937Y-52877876D01*
X77126937Y-52824001D01*
X77100000Y-52743189D01*
X76884500Y-52527690D01*
X76318815Y-53093375D01*
X76507377Y-53281937D01*
X76588189Y-53308874D01*
X76642064Y-53308874D01*
X76722876Y-53281937D01*
X76776751Y-53228062D01*
X76803688Y-53147250D01*
X76803688Y-53093375D01*
X76776751Y-53012563D01*
X76588189Y-52824001D01*
X76884500Y-53659061D02*
X77342436Y-53201125D01*
X77423248Y-53174187D01*
X77477123Y-53174187D01*
X77557935Y-53201125D01*
X77665685Y-53308874D01*
X77692622Y-53389687D01*
X77692622Y-53443561D01*
X77665685Y-53524374D01*
X77207749Y-53982309D01*
X77988934Y-53685998D02*
X78096683Y-53739873D01*
X78231370Y-53874560D01*
X78258308Y-53955372D01*
X78258308Y-54009247D01*
X78231370Y-54090059D01*
X78177496Y-54143934D01*
X78096683Y-54170871D01*
X78042809Y-54170871D01*
X77961996Y-54143934D01*
X77827309Y-54063122D01*
X77746497Y-54036184D01*
X77692622Y-54036184D01*
X77611810Y-54063122D01*
X77557935Y-54116996D01*
X77530998Y-54197809D01*
X77530998Y-54251683D01*
X77557935Y-54332496D01*
X77692622Y-54467183D01*
X77800372Y-54521057D01*
X76886158Y-96356844D02*
X76805346Y-96329906D01*
X76724534Y-96249094D01*
X76670659Y-96141345D01*
X76670659Y-96033595D01*
X76697597Y-95952783D01*
X76778409Y-95818096D01*
X76859221Y-95737284D01*
X76993908Y-95656471D01*
X77074720Y-95629534D01*
X77182470Y-95629534D01*
X77290219Y-95683409D01*
X77344094Y-95737284D01*
X77397969Y-95845033D01*
X77397969Y-95898908D01*
X77209407Y-96087470D01*
X77101658Y-95979720D01*
X77694280Y-96087470D02*
X77128595Y-96653155D01*
X78017529Y-96410719D01*
X77451844Y-96976404D01*
X78286903Y-96680093D02*
X77721218Y-97245778D01*
X77855905Y-97380465D01*
X77963654Y-97434340D01*
X78071404Y-97434340D01*
X78152216Y-97407402D01*
X78286903Y-97326590D01*
X78367715Y-97245778D01*
X78448528Y-97111091D01*
X78475465Y-97030279D01*
X78475465Y-96922529D01*
X78421590Y-96814780D01*
X78286903Y-96680093D01*
X76443597Y-70014035D02*
X76712971Y-70283409D01*
X76551346Y-69798536D02*
X76174223Y-70552783D01*
X76928470Y-70175659D01*
X76874595Y-71199280D02*
X76793783Y-71172343D01*
X76712971Y-71091531D01*
X76659096Y-70983781D01*
X76659096Y-70876032D01*
X76686033Y-70795219D01*
X76766845Y-70660532D01*
X76847658Y-70579720D01*
X76982345Y-70498908D01*
X77063157Y-70471971D01*
X77170906Y-70471971D01*
X77278656Y-70525845D01*
X77332531Y-70579720D01*
X77386406Y-70687470D01*
X77386406Y-70741345D01*
X77197844Y-70929906D01*
X77090094Y-70822157D01*
X77682717Y-70929906D02*
X77117032Y-71495592D01*
X78005966Y-71253155D01*
X77440280Y-71818841D01*
X78275340Y-71522529D02*
X77709654Y-72088215D01*
X77844341Y-72222902D01*
X77952091Y-72276776D01*
X78059841Y-72276776D01*
X78140653Y-72249839D01*
X78275340Y-72169027D01*
X78356152Y-72088215D01*
X78436964Y-71953528D01*
X78463902Y-71872715D01*
X78463902Y-71764966D01*
X78410027Y-71657216D01*
X78275340Y-71522529D01*
X102643722Y-88494407D02*
X102562910Y-88467470D01*
X102482097Y-88386658D01*
X102428223Y-88278908D01*
X102428223Y-88171158D01*
X102455160Y-88090346D01*
X102535972Y-87955659D01*
X102616784Y-87874847D01*
X102751471Y-87794035D01*
X102832284Y-87767097D01*
X102940033Y-87767097D01*
X103047783Y-87820972D01*
X103101658Y-87874847D01*
X103155532Y-87982597D01*
X103155532Y-88036471D01*
X102966971Y-88225033D01*
X102859221Y-88117284D01*
X103451844Y-88225033D02*
X102886158Y-88790719D01*
X103101658Y-89006218D01*
X103182470Y-89033155D01*
X103236345Y-89033155D01*
X103317157Y-89006218D01*
X103397969Y-88925406D01*
X103424906Y-88844593D01*
X103424906Y-88790719D01*
X103397969Y-88709906D01*
X103182470Y-88494407D01*
X104313841Y-89087030D02*
X103990592Y-88763781D01*
X104152216Y-88925406D02*
X103586531Y-89491091D01*
X103613468Y-89356404D01*
X103613468Y-89248654D01*
X103586531Y-89167842D01*
X104852589Y-89625778D02*
X104529340Y-89302529D01*
X104690964Y-89464154D02*
X104125279Y-90029839D01*
X104152216Y-89895152D01*
X104152216Y-89787402D01*
X104125279Y-89706590D01*
D11*
X79900000Y-92555000D02*
X79900000Y-92955000D01*
X100900000Y-59455000D02*
X100900000Y-59855000D01*
X79900000Y-51955000D02*
X79900000Y-52255000D01*
X100900000Y-79755000D02*
X100900000Y-80155000D01*
X79900000Y-59455000D02*
X79900000Y-59855000D01*
X79900000Y-89955000D02*
X79900000Y-90355000D01*
X79900000Y-97555000D02*
X79900000Y-97955000D01*
X100900000Y-51955000D02*
X100900000Y-52255000D01*
X79900000Y-69655000D02*
X79900000Y-70055000D01*
X79900000Y-95055000D02*
X79900000Y-95455000D01*
X79900000Y-67055000D02*
X79900000Y-67455000D01*
X79900000Y-84855000D02*
X79900000Y-85255000D01*
X100900000Y-89955000D02*
X100900000Y-90355000D01*
X100900000Y-95055000D02*
X100900000Y-95455000D01*
X100900000Y-77255000D02*
X100900000Y-77655000D01*
X100900000Y-67055000D02*
X100900000Y-67455000D01*
X79900000Y-79755000D02*
X79900000Y-80155000D01*
X100900000Y-87455000D02*
X100900000Y-87855000D01*
X79900000Y-64555000D02*
X79900000Y-64955000D01*
X100900000Y-92555000D02*
X100900000Y-92955000D01*
X79900000Y-56955000D02*
X79900000Y-57355000D01*
X100900000Y-64555000D02*
X100900000Y-64955000D01*
X100900000Y-82355000D02*
X100900000Y-82755000D01*
X100900000Y-69655000D02*
X100900000Y-70055000D01*
X100900000Y-54622000D02*
X97893000Y-54622000D01*
X100900000Y-84855000D02*
X100900000Y-85255000D01*
X79900000Y-62055000D02*
X79900000Y-62455000D01*
X79900000Y-102955000D02*
X86700000Y-102955000D01*
X79900000Y-74755000D02*
X79900000Y-75155000D01*
X100900000Y-72155000D02*
X100900000Y-72555000D01*
X100900000Y-62055000D02*
X100900000Y-62455000D01*
X100900000Y-100155000D02*
X100900000Y-100555000D01*
X100900000Y-74755000D02*
X100900000Y-75155000D01*
X100900000Y-97555000D02*
X100900000Y-97955000D01*
X100900000Y-51955000D02*
X79900000Y-51955000D01*
X79900000Y-72155000D02*
X79900000Y-72555000D01*
X97893000Y-54622000D02*
X97893000Y-51955000D01*
X79900000Y-54355000D02*
X79900000Y-54755000D01*
X79900000Y-100155000D02*
X79900000Y-100555000D01*
X79900000Y-77255000D02*
X79900000Y-77655000D01*
X94100000Y-102955000D02*
X100900000Y-102955000D01*
X79900000Y-87455000D02*
X79900000Y-87855000D01*
X100900000Y-56955000D02*
X100900000Y-57355000D01*
X100900000Y-54355000D02*
X100900000Y-54755000D01*
X79900000Y-82355000D02*
X79900000Y-82755000D01*
%TD*%
M02*
