%TF.GenerationSoftware,KiCad,Pcbnew,(6.0.9)*%
%TF.CreationDate,2023-01-29T18:03:13-08:00*%
%TF.ProjectId,numpad,6e756d70-6164-42e6-9b69-6361645f7063,rev?*%
%TF.SameCoordinates,Original*%
%TF.FileFunction,Copper,L2,Bot*%
%TF.FilePolarity,Positive*%
%FSLAX46Y46*%
G04 Gerber Fmt 4.6, Leading zero omitted, Abs format (unit mm)*
G04 Created by KiCad (PCBNEW (6.0.9)) date 2023-01-29 18:03:13*
%MOMM*%
%LPD*%
G01*
G04 APERTURE LIST*
%TA.AperFunction,SMDPad,CuDef*%
%ADD10R,3.500000X1.700000*%
%TD*%
%TA.AperFunction,ComponentPad*%
%ADD11O,1.700000X1.700000*%
%TD*%
%TA.AperFunction,ComponentPad*%
%ADD12R,1.700000X1.700000*%
%TD*%
%TA.AperFunction,ComponentPad*%
%ADD13C,2.200000*%
%TD*%
%TA.AperFunction,Conductor*%
%ADD14C,0.250000*%
%TD*%
G04 APERTURE END LIST*
D10*
%TO.P,U1,40,VBUS*%
%TO.N,unconnected-(U1-Pad40)*%
X80610000Y-53325000D03*
D11*
X81510000Y-53325000D03*
%TO.P,U1,39,VSYS*%
%TO.N,unconnected-(U1-Pad39)*%
X81510000Y-55865000D03*
D10*
X80610000Y-55865000D03*
D12*
%TO.P,U1,38,GND*%
%TO.N,unconnected-(U1-Pad38)*%
X81510000Y-58405000D03*
D10*
X80610000Y-58405000D03*
D11*
%TO.P,U1,37,3V3_EN*%
%TO.N,unconnected-(U1-Pad37)*%
X81510000Y-60945000D03*
D10*
X80610000Y-60945000D03*
%TO.P,U1,36,3V3*%
%TO.N,Net-(SW1-Pad1)*%
X80610000Y-63485000D03*
D11*
X81510000Y-63485000D03*
%TO.P,U1,35,ADC_VREF*%
%TO.N,unconnected-(U1-Pad35)*%
X81510000Y-66025000D03*
D10*
X80610000Y-66025000D03*
D11*
%TO.P,U1,34,GPIO28_ADC2*%
%TO.N,unconnected-(U1-Pad34)*%
X81510000Y-68565000D03*
D10*
X80610000Y-68565000D03*
D12*
%TO.P,U1,33,AGND*%
%TO.N,unconnected-(U1-Pad33)*%
X81510000Y-71105000D03*
D10*
X80610000Y-71105000D03*
%TO.P,U1,32,GPIO27_ADC1*%
%TO.N,unconnected-(U1-Pad32)*%
X80610000Y-73645000D03*
D11*
X81510000Y-73645000D03*
D10*
%TO.P,U1,31,GPIO26_ADC0*%
%TO.N,unconnected-(U1-Pad31)*%
X80610000Y-76185000D03*
D11*
X81510000Y-76185000D03*
%TO.P,U1,30,RUN*%
%TO.N,unconnected-(U1-Pad30)*%
X81510000Y-78725000D03*
D10*
X80610000Y-78725000D03*
%TO.P,U1,29,GPIO22*%
%TO.N,unconnected-(U1-Pad29)*%
X80610000Y-81265000D03*
D11*
X81510000Y-81265000D03*
D10*
%TO.P,U1,28,GND*%
%TO.N,unconnected-(U1-Pad28)*%
X80610000Y-83805000D03*
D12*
X81510000Y-83805000D03*
D10*
%TO.P,U1,27,GPIO21*%
%TO.N,unconnected-(U1-Pad27)*%
X80610000Y-86345000D03*
D11*
X81510000Y-86345000D03*
%TO.P,U1,26,GPIO20*%
%TO.N,unconnected-(U1-Pad26)*%
X81510000Y-88885000D03*
D10*
X80610000Y-88885000D03*
D11*
%TO.P,U1,25,GPIO19*%
%TO.N,unconnected-(U1-Pad25)*%
X81510000Y-91425000D03*
D10*
X80610000Y-91425000D03*
%TO.P,U1,24,GPIO18*%
%TO.N,unconnected-(U1-Pad24)*%
X80610000Y-93965000D03*
D11*
X81510000Y-93965000D03*
D12*
%TO.P,U1,23,GND*%
%TO.N,unconnected-(U1-Pad23)*%
X81510000Y-96505000D03*
D10*
X80610000Y-96505000D03*
D11*
%TO.P,U1,22,GPIO17*%
%TO.N,unconnected-(U1-Pad22)*%
X81510000Y-99045000D03*
D10*
X80610000Y-99045000D03*
D11*
%TO.P,U1,21,GPIO16*%
%TO.N,Net-(SW17-Pad2)*%
X81510000Y-101585000D03*
D10*
X80610000Y-101585000D03*
D11*
%TO.P,U1,20,GPIO15*%
%TO.N,Net-(SW16-Pad2)*%
X99290000Y-101585000D03*
D10*
X100190000Y-101585000D03*
%TO.P,U1,19,GPIO14*%
%TO.N,Net-(SW15-Pad2)*%
X100190000Y-99045000D03*
D11*
X99290000Y-99045000D03*
D12*
%TO.P,U1,18,GND*%
%TO.N,unconnected-(U1-Pad18)*%
X99290000Y-96505000D03*
D10*
X100190000Y-96505000D03*
D11*
%TO.P,U1,17,GPIO13*%
%TO.N,Net-(SW14-Pad2)*%
X99290000Y-93965000D03*
D10*
X100190000Y-93965000D03*
D11*
%TO.P,U1,16,GPIO12*%
%TO.N,Net-(SW13-Pad2)*%
X99290000Y-91425000D03*
D10*
X100190000Y-91425000D03*
%TO.P,U1,15,GPIO11*%
%TO.N,Net-(SW12-Pad2)*%
X100190000Y-88885000D03*
D11*
X99290000Y-88885000D03*
%TO.P,U1,14,GPIO10*%
%TO.N,Net-(SW11-Pad2)*%
X99290000Y-86345000D03*
D10*
X100190000Y-86345000D03*
%TO.P,U1,13,GND*%
%TO.N,unconnected-(U1-Pad13)*%
X100190000Y-83805000D03*
D12*
X99290000Y-83805000D03*
D10*
%TO.P,U1,12,GPIO9*%
%TO.N,Net-(SW10-Pad2)*%
X100190000Y-81265000D03*
D11*
X99290000Y-81265000D03*
%TO.P,U1,11,GPIO8*%
%TO.N,Net-(SW9-Pad2)*%
X99290000Y-78725000D03*
D10*
X100190000Y-78725000D03*
%TO.P,U1,10,GPIO7*%
%TO.N,Net-(SW8-Pad2)*%
X100190000Y-76185000D03*
D11*
X99290000Y-76185000D03*
%TO.P,U1,9,GPIO6*%
%TO.N,Net-(SW7-Pad2)*%
X99290000Y-73645000D03*
D10*
X100190000Y-73645000D03*
%TO.P,U1,8,GND*%
%TO.N,unconnected-(U1-Pad8)*%
X100190000Y-71105000D03*
D12*
X99290000Y-71105000D03*
D11*
%TO.P,U1,7,GPIO5*%
%TO.N,Net-(SW6-Pad2)*%
X99290000Y-68565000D03*
D10*
X100190000Y-68565000D03*
%TO.P,U1,6,GPIO4*%
%TO.N,Net-(SW5-Pad2)*%
X100190000Y-66025000D03*
D11*
X99290000Y-66025000D03*
D10*
%TO.P,U1,5,GPIO3*%
%TO.N,Net-(SW4-Pad2)*%
X100190000Y-63485000D03*
D11*
X99290000Y-63485000D03*
D10*
%TO.P,U1,4,GPIO2*%
%TO.N,Net-(SW3-Pad2)*%
X100190000Y-60945000D03*
D11*
X99290000Y-60945000D03*
D12*
%TO.P,U1,3,GND*%
%TO.N,unconnected-(U1-Pad3)*%
X99290000Y-58405000D03*
D10*
X100190000Y-58405000D03*
%TO.P,U1,2,GPIO1*%
%TO.N,Net-(SW2-Pad2)*%
X100190000Y-55865000D03*
D11*
X99290000Y-55865000D03*
D10*
%TO.P,U1,1,GPIO0*%
%TO.N,Net-(SW1-Pad2)*%
X100190000Y-53325000D03*
D11*
X99290000Y-53325000D03*
%TD*%
D13*
%TO.P,SW17,2*%
%TO.N,Net-(SW17-Pad2)*%
X123170000Y-88935000D03*
%TO.P,SW17,1*%
%TO.N,Net-(SW1-Pad1)*%
X125710000Y-95285000D03*
%TD*%
%TO.P,SW16,2*%
%TO.N,Net-(SW16-Pad2)*%
X123170000Y-127035000D03*
%TO.P,SW16,1*%
%TO.N,Net-(SW1-Pad1)*%
X125710000Y-133385000D03*
%TD*%
%TO.P,SW15,2*%
%TO.N,Net-(SW15-Pad2)*%
X83165000Y-134020000D03*
%TO.P,SW15,1*%
%TO.N,Net-(SW1-Pad1)*%
X76815000Y-136560000D03*
%TD*%
%TO.P,SW14,2*%
%TO.N,Net-(SW14-Pad2)*%
X130790000Y-57820000D03*
%TO.P,SW14,1*%
%TO.N,Net-(SW1-Pad1)*%
X124440000Y-60360000D03*
%TD*%
%TO.P,SW13,2*%
%TO.N,Net-(SW13-Pad2)*%
X111740000Y-134020000D03*
%TO.P,SW13,1*%
%TO.N,Net-(SW1-Pad1)*%
X105390000Y-136560000D03*
%TD*%
%TO.P,SW12,2*%
%TO.N,Net-(SW12-Pad2)*%
X111740000Y-57820000D03*
%TO.P,SW12,1*%
%TO.N,Net-(SW1-Pad1)*%
X105390000Y-60360000D03*
%TD*%
%TO.P,SW11,2*%
%TO.N,Net-(SW11-Pad2)*%
X92690000Y-57820000D03*
%TO.P,SW11,1*%
%TO.N,Net-(SW1-Pad1)*%
X86340000Y-60360000D03*
%TD*%
%TO.P,SW10,2*%
%TO.N,Net-(SW10-Pad2)*%
X73640000Y-57820000D03*
%TO.P,SW10,1*%
%TO.N,Net-(SW1-Pad1)*%
X67290000Y-60360000D03*
%TD*%
%TO.P,SW9,2*%
%TO.N,Net-(SW9-Pad2)*%
X111740000Y-76870000D03*
%TO.P,SW9,1*%
%TO.N,Net-(SW1-Pad1)*%
X105390000Y-79410000D03*
%TD*%
%TO.P,SW8,2*%
%TO.N,Net-(SW8-Pad2)*%
X92690000Y-76870000D03*
%TO.P,SW8,1*%
%TO.N,Net-(SW1-Pad1)*%
X86340000Y-79410000D03*
%TD*%
%TO.P,SW7,2*%
%TO.N,Net-(SW7-Pad2)*%
X73640000Y-76870000D03*
%TO.P,SW7,1*%
%TO.N,Net-(SW1-Pad1)*%
X67290000Y-79410000D03*
%TD*%
%TO.P,SW6,1*%
%TO.N,Net-(SW1-Pad1)*%
X105390000Y-98460000D03*
%TO.P,SW6,2*%
%TO.N,Net-(SW6-Pad2)*%
X111740000Y-95920000D03*
%TD*%
%TO.P,SW5,2*%
%TO.N,Net-(SW5-Pad2)*%
X92690000Y-95920000D03*
%TO.P,SW5,1*%
%TO.N,Net-(SW1-Pad1)*%
X86340000Y-98460000D03*
%TD*%
%TO.P,SW4,2*%
%TO.N,Net-(SW4-Pad2)*%
X73640000Y-95920000D03*
%TO.P,SW4,1*%
%TO.N,Net-(SW1-Pad1)*%
X67290000Y-98460000D03*
%TD*%
%TO.P,SW3,2*%
%TO.N,Net-(SW3-Pad2)*%
X111740000Y-114970000D03*
%TO.P,SW3,1*%
%TO.N,Net-(SW1-Pad1)*%
X105390000Y-117510000D03*
%TD*%
%TO.P,SW2,2*%
%TO.N,Net-(SW2-Pad2)*%
X92690000Y-114970000D03*
%TO.P,SW2,1*%
%TO.N,Net-(SW1-Pad1)*%
X86340000Y-117510000D03*
%TD*%
%TO.P,SW1,2*%
%TO.N,Net-(SW1-Pad2)*%
X73640000Y-114970000D03*
%TO.P,SW1,1*%
%TO.N,Net-(SW1-Pad1)*%
X67290000Y-117510000D03*
%TD*%
D14*
%TO.N,Net-(SW16-Pad2)*%
X110183758Y-117674999D02*
X110074999Y-117674999D01*
X104100000Y-106395000D02*
X99290000Y-101585000D01*
X111575001Y-119175001D02*
X111575001Y-119066242D01*
X111575001Y-119066242D02*
X110183758Y-117674999D01*
X119435000Y-127035000D02*
X111575001Y-119175001D01*
X110074999Y-117674999D02*
X104100000Y-111700000D01*
X104100000Y-111700000D02*
X104100000Y-106395000D01*
X123170000Y-127035000D02*
X119435000Y-127035000D01*
%TO.N,Net-(SW14-Pad2)*%
X103965000Y-94735000D02*
X103195000Y-93965000D01*
X103195000Y-93965000D02*
X99290000Y-93965000D01*
X103965000Y-99050255D02*
X103965000Y-94735000D01*
X104800000Y-99885255D02*
X103965000Y-99050255D01*
X110315000Y-98756241D02*
X113500000Y-101941241D01*
X113500000Y-117600000D02*
X112354745Y-117600000D01*
X110315000Y-86348604D02*
X110315000Y-98756241D01*
X113500000Y-101941241D02*
X113500000Y-117600000D01*
X112354745Y-117600000D02*
X104800000Y-110045255D01*
X130790000Y-65873604D02*
X110315000Y-86348604D01*
X104800000Y-110045255D02*
X104800000Y-99885255D01*
X130790000Y-57820000D02*
X130790000Y-65873604D01*
%TO.N,Net-(SW12-Pad2)*%
X102385000Y-88885000D02*
X99290000Y-88885000D01*
X102500000Y-89000000D02*
X102385000Y-88885000D01*
X108125001Y-79574999D02*
X102500000Y-85200000D01*
X102500000Y-85200000D02*
X102500000Y-89000000D01*
X112225001Y-79574999D02*
X108125001Y-79574999D01*
X113500000Y-78300000D02*
X112225001Y-79574999D01*
X113500000Y-59580000D02*
X113500000Y-78300000D01*
X111740000Y-57820000D02*
X113500000Y-59580000D01*
%TO.N,Net-(SW10-Pad2)*%
X86301241Y-82440000D02*
X89166242Y-79574999D01*
X97599999Y-79574999D02*
X99290000Y-81265000D01*
X65865000Y-71165000D02*
X77140000Y-82440000D01*
X89166242Y-79574999D02*
X97599999Y-79574999D01*
X65865000Y-59769745D02*
X65865000Y-71165000D01*
X67814745Y-57820000D02*
X65865000Y-59769745D01*
X77140000Y-82440000D02*
X86301241Y-82440000D01*
X73640000Y-57820000D02*
X67814745Y-57820000D01*
%TO.N,Net-(SW5-Pad2)*%
X89916241Y-66025000D02*
X99290000Y-66025000D01*
X83661241Y-59770000D02*
X89916241Y-66025000D01*
X78770000Y-59770000D02*
X83661241Y-59770000D01*
X75395000Y-56395000D02*
X78770000Y-59770000D01*
X70005000Y-56395000D02*
X75395000Y-56395000D01*
X68100000Y-56200000D02*
X69810000Y-56200000D01*
X64700000Y-59600000D02*
X68100000Y-56200000D01*
X69810000Y-56200000D02*
X70005000Y-56395000D01*
X64700000Y-74800000D02*
X64700000Y-59600000D01*
X68900000Y-79000000D02*
X64700000Y-74800000D01*
X71600000Y-79000000D02*
X68900000Y-79000000D01*
X74500000Y-81900000D02*
X71600000Y-79000000D01*
X72500000Y-84600000D02*
X72500000Y-84000000D01*
X74500000Y-82000000D02*
X74500000Y-81900000D01*
X84451802Y-87681802D02*
X75581802Y-87681802D01*
X72500000Y-84000000D02*
X74500000Y-82000000D01*
X92690000Y-95920000D02*
X84451802Y-87681802D01*
X75581802Y-87681802D02*
X72500000Y-84600000D01*
%TO.N,Net-(SW11-Pad2)*%
X97100000Y-88535000D02*
X99290000Y-86345000D01*
X97100000Y-90000000D02*
X97100000Y-88535000D01*
X96300000Y-90800000D02*
X97100000Y-90000000D01*
X96300000Y-94400000D02*
X96300000Y-90800000D01*
X93355000Y-97345000D02*
X96300000Y-94400000D01*
X92045000Y-97345000D02*
X93355000Y-97345000D01*
X78490000Y-92790000D02*
X87490000Y-92790000D01*
X63300000Y-60300000D02*
X63300000Y-77600000D01*
X68300000Y-55300000D02*
X63300000Y-60300000D01*
X87490000Y-92790000D02*
X92045000Y-97345000D01*
X82540000Y-57040000D02*
X77240000Y-57040000D01*
X77240000Y-57040000D02*
X75500000Y-55300000D01*
X75500000Y-55300000D02*
X68300000Y-55300000D01*
X83320000Y-57820000D02*
X82540000Y-57040000D01*
X63300000Y-77600000D02*
X78490000Y-92790000D01*
X92690000Y-57820000D02*
X83320000Y-57820000D01*
%TO.N,Net-(SW4-Pad2)*%
X95900000Y-60095000D02*
X99290000Y-63485000D01*
X95900000Y-55700000D02*
X95900000Y-60095000D01*
X95500000Y-55300000D02*
X95900000Y-55700000D01*
X66510000Y-54690000D02*
X87290000Y-54690000D01*
X87290000Y-54690000D02*
X87900000Y-55300000D01*
X62300000Y-58900000D02*
X66510000Y-54690000D01*
X87900000Y-55300000D02*
X95500000Y-55300000D01*
X73640000Y-91040000D02*
X62300000Y-79700000D01*
X73640000Y-95920000D02*
X73640000Y-91040000D01*
X62300000Y-79700000D02*
X62300000Y-58900000D01*
%TO.N,Net-(SW1-Pad2)*%
X98115000Y-52150000D02*
X99290000Y-53325000D01*
X67500000Y-52200000D02*
X77700000Y-52200000D01*
X77700000Y-52200000D02*
X77750000Y-52150000D01*
X77750000Y-52150000D02*
X98115000Y-52150000D01*
X60900000Y-58800000D02*
X67500000Y-52200000D01*
X60900000Y-102230000D02*
X60900000Y-58800000D01*
X73640000Y-114970000D02*
X60900000Y-102230000D01*
%TO.N,Net-(SW6-Pad2)*%
X100900000Y-68565000D02*
X99290000Y-68565000D01*
X106815000Y-62650000D02*
X100900000Y-68565000D01*
X106815000Y-60685000D02*
X106815000Y-62650000D01*
X111105000Y-56395000D02*
X106815000Y-60685000D01*
X131380255Y-56395000D02*
X111105000Y-56395000D01*
X133300000Y-58314745D02*
X131380255Y-56395000D01*
X133300000Y-64000000D02*
X133300000Y-58314745D01*
X111740000Y-85560000D02*
X133300000Y-64000000D01*
X111740000Y-95920000D02*
X111740000Y-85560000D01*
%TO.N,Net-(SW2-Pad2)*%
X102900000Y-56000000D02*
X102765000Y-55865000D01*
X106800000Y-52100000D02*
X102900000Y-56000000D01*
X120800000Y-52100000D02*
X106800000Y-52100000D01*
X124565000Y-55865000D02*
X120800000Y-52100000D01*
X131935000Y-55865000D02*
X124565000Y-55865000D01*
X134500000Y-58430000D02*
X131935000Y-55865000D01*
X134500000Y-63100000D02*
X134500000Y-58430000D01*
X102765000Y-55865000D02*
X99290000Y-55865000D01*
X134700000Y-63300000D02*
X134500000Y-63100000D01*
X134700000Y-63700000D02*
X134700000Y-63300000D01*
X116700000Y-94700000D02*
X116700000Y-81700000D01*
X116700000Y-81700000D02*
X134700000Y-63700000D01*
X132200000Y-110200000D02*
X116700000Y-94700000D01*
X132200000Y-120100000D02*
X132200000Y-110200000D01*
X116855000Y-135445000D02*
X132200000Y-120100000D01*
X92690000Y-116985255D02*
X111149745Y-135445000D01*
X92690000Y-114970000D02*
X92690000Y-116985255D01*
X111149745Y-135445000D02*
X116855000Y-135445000D01*
%TO.N,Net-(SW17-Pad2)*%
X80500000Y-102595000D02*
X81510000Y-101585000D01*
X80500000Y-135600000D02*
X80500000Y-102595000D01*
X83600255Y-135600000D02*
X80500000Y-135600000D01*
X84590000Y-134610255D02*
X83600255Y-135600000D01*
X105455510Y-134610255D02*
X84590000Y-134610255D01*
X107570254Y-136724999D02*
X105455510Y-134610255D01*
X113800000Y-137900000D02*
X112624999Y-136724999D01*
X134600000Y-110300000D02*
X134600000Y-119866241D01*
X112624999Y-136724999D02*
X107570254Y-136724999D01*
X134600000Y-119866241D02*
X116566241Y-137900000D01*
X123170000Y-98870000D02*
X134600000Y-110300000D01*
X116566241Y-137900000D02*
X113800000Y-137900000D01*
X123170000Y-88935000D02*
X123170000Y-98870000D01*
%TO.N,Net-(SW13-Pad2)*%
X97900000Y-92815000D02*
X99290000Y-91425000D01*
X111740000Y-134020000D02*
X97900000Y-120180000D01*
X97900000Y-120180000D02*
X97900000Y-92815000D01*
%TO.N,Net-(SW7-Pad2)*%
X75500000Y-75010000D02*
X97925000Y-75010000D01*
X97925000Y-75010000D02*
X99290000Y-73645000D01*
X73640000Y-76870000D02*
X75500000Y-75010000D01*
%TO.N,Net-(SW9-Pad2)*%
X100045001Y-77969999D02*
X99290000Y-78725000D01*
X110640001Y-77969999D02*
X100045001Y-77969999D01*
X111740000Y-76870000D02*
X110640001Y-77969999D01*
%TO.N,Net-(SW8-Pad2)*%
X92690000Y-76870000D02*
X98605000Y-76870000D01*
X98605000Y-76870000D02*
X99290000Y-76185000D01*
%TD*%
M02*
