%TF.GenerationSoftware,KiCad,Pcbnew,(6.0.9)*%
%TF.CreationDate,2023-01-29T18:03:13-08:00*%
%TF.ProjectId,numpad,6e756d70-6164-42e6-9b69-6361645f7063,rev?*%
%TF.SameCoordinates,Original*%
%TF.FileFunction,Soldermask,Bot*%
%TF.FilePolarity,Negative*%
%FSLAX46Y46*%
G04 Gerber Fmt 4.6, Leading zero omitted, Abs format (unit mm)*
G04 Created by KiCad (PCBNEW (6.0.9)) date 2023-01-29 18:03:13*
%MOMM*%
%LPD*%
G01*
G04 APERTURE LIST*
%ADD10R,3.500000X1.700000*%
%ADD11O,1.700000X1.700000*%
%ADD12R,1.700000X1.700000*%
%ADD13C,2.200000*%
%ADD14C,4.000000*%
G04 APERTURE END LIST*
D10*
%TO.C,U1*%
X80610000Y-53325000D03*
D11*
X81510000Y-53325000D03*
X81510000Y-55865000D03*
D10*
X80610000Y-55865000D03*
D12*
X81510000Y-58405000D03*
D10*
X80610000Y-58405000D03*
D11*
X81510000Y-60945000D03*
D10*
X80610000Y-60945000D03*
X80610000Y-63485000D03*
D11*
X81510000Y-63485000D03*
X81510000Y-66025000D03*
D10*
X80610000Y-66025000D03*
D11*
X81510000Y-68565000D03*
D10*
X80610000Y-68565000D03*
D12*
X81510000Y-71105000D03*
D10*
X80610000Y-71105000D03*
X80610000Y-73645000D03*
D11*
X81510000Y-73645000D03*
D10*
X80610000Y-76185000D03*
D11*
X81510000Y-76185000D03*
X81510000Y-78725000D03*
D10*
X80610000Y-78725000D03*
X80610000Y-81265000D03*
D11*
X81510000Y-81265000D03*
D10*
X80610000Y-83805000D03*
D12*
X81510000Y-83805000D03*
D10*
X80610000Y-86345000D03*
D11*
X81510000Y-86345000D03*
X81510000Y-88885000D03*
D10*
X80610000Y-88885000D03*
D11*
X81510000Y-91425000D03*
D10*
X80610000Y-91425000D03*
X80610000Y-93965000D03*
D11*
X81510000Y-93965000D03*
D12*
X81510000Y-96505000D03*
D10*
X80610000Y-96505000D03*
D11*
X81510000Y-99045000D03*
D10*
X80610000Y-99045000D03*
D11*
X81510000Y-101585000D03*
D10*
X80610000Y-101585000D03*
D11*
X99290000Y-101585000D03*
D10*
X100190000Y-101585000D03*
X100190000Y-99045000D03*
D11*
X99290000Y-99045000D03*
D12*
X99290000Y-96505000D03*
D10*
X100190000Y-96505000D03*
D11*
X99290000Y-93965000D03*
D10*
X100190000Y-93965000D03*
D11*
X99290000Y-91425000D03*
D10*
X100190000Y-91425000D03*
X100190000Y-88885000D03*
D11*
X99290000Y-88885000D03*
X99290000Y-86345000D03*
D10*
X100190000Y-86345000D03*
X100190000Y-83805000D03*
D12*
X99290000Y-83805000D03*
D10*
X100190000Y-81265000D03*
D11*
X99290000Y-81265000D03*
X99290000Y-78725000D03*
D10*
X100190000Y-78725000D03*
X100190000Y-76185000D03*
D11*
X99290000Y-76185000D03*
X99290000Y-73645000D03*
D10*
X100190000Y-73645000D03*
X100190000Y-71105000D03*
D12*
X99290000Y-71105000D03*
D11*
X99290000Y-68565000D03*
D10*
X100190000Y-68565000D03*
X100190000Y-66025000D03*
D11*
X99290000Y-66025000D03*
D10*
X100190000Y-63485000D03*
D11*
X99290000Y-63485000D03*
D10*
X100190000Y-60945000D03*
D11*
X99290000Y-60945000D03*
D12*
X99290000Y-58405000D03*
D10*
X100190000Y-58405000D03*
X100190000Y-55865000D03*
D11*
X99290000Y-55865000D03*
D10*
X100190000Y-53325000D03*
D11*
X99290000Y-53325000D03*
%TD*%
D13*
%TO.C,SW17*%
X123170000Y-88935000D03*
X125710000Y-95285000D03*
D14*
X128250000Y-91475000D03*
%TD*%
D13*
%TO.C,SW16*%
X123170000Y-127035000D03*
X125710000Y-133385000D03*
D14*
X128250000Y-129575000D03*
%TD*%
D13*
%TO.C,SW15*%
X83165000Y-134020000D03*
X76815000Y-136560000D03*
D14*
X80625000Y-139100000D03*
%TD*%
D13*
%TO.C,SW14*%
X130790000Y-57820000D03*
X124440000Y-60360000D03*
D14*
X128250000Y-62900000D03*
%TD*%
D13*
%TO.C,SW13*%
X111740000Y-134020000D03*
X105390000Y-136560000D03*
D14*
X109200000Y-139100000D03*
%TD*%
D13*
%TO.C,SW12*%
X111740000Y-57820000D03*
X105390000Y-60360000D03*
D14*
X109200000Y-62900000D03*
%TD*%
D13*
%TO.C,SW11*%
X92690000Y-57820000D03*
X86340000Y-60360000D03*
D14*
X90150000Y-62900000D03*
%TD*%
D13*
%TO.C,SW10*%
X73640000Y-57820000D03*
X67290000Y-60360000D03*
D14*
X71100000Y-62900000D03*
%TD*%
D13*
%TO.C,SW9*%
X111740000Y-76870000D03*
X105390000Y-79410000D03*
D14*
X109200000Y-81950000D03*
%TD*%
D13*
%TO.C,SW8*%
X92690000Y-76870000D03*
X86340000Y-79410000D03*
D14*
X90150000Y-81950000D03*
%TD*%
D13*
%TO.C,SW7*%
X73640000Y-76870000D03*
X67290000Y-79410000D03*
D14*
X71100000Y-81950000D03*
%TD*%
%TO.C,SW6*%
X109200000Y-101000000D03*
D13*
X105390000Y-98460000D03*
X111740000Y-95920000D03*
%TD*%
%TO.C,SW5*%
X92690000Y-95920000D03*
X86340000Y-98460000D03*
D14*
X90150000Y-101000000D03*
%TD*%
D13*
%TO.C,SW4*%
X73640000Y-95920000D03*
X67290000Y-98460000D03*
D14*
X71100000Y-101000000D03*
%TD*%
D13*
%TO.C,SW3*%
X111740000Y-114970000D03*
X105390000Y-117510000D03*
D14*
X109200000Y-120050000D03*
%TD*%
D13*
%TO.C,SW2*%
X92690000Y-114970000D03*
X86340000Y-117510000D03*
D14*
X90150000Y-120050000D03*
%TD*%
D13*
%TO.C,SW1*%
X73640000Y-114970000D03*
X67290000Y-117510000D03*
D14*
X71100000Y-120050000D03*
%TD*%
M02*
